<svg width="375" height="600" viewBox="0 0 375 600" fill="none" xmlns="http://www.w3.org/2000/svg">
<path fill-rule="evenodd" clip-rule="evenodd" d="M630.923 569.677L508.052 873.793L203.936 750.922L289.346 539.524C310.035 488.317 368.318 463.578 419.525 484.267L630.923 569.677ZM125.865 364.241C209.844 398.171 250.417 493.756 216.487 577.735C182.558 661.714 86.9732 702.288 2.99376 668.358C-80.9856 634.428 -121.559 538.843 -87.6289 454.864C-53.6991 370.885 41.8853 330.312 125.865 364.241ZM775.923 211.677L653.052 515.793L441.654 430.383C390.447 409.694 365.707 351.411 386.396 300.204L471.807 88.8059L775.923 211.677ZM421.923 67.6769L336.513 279.075C315.824 330.282 257.54 355.021 206.334 334.333L-5.06441 248.922L117.807 -55.1941L421.923 67.6769Z" fill="url(#paint0_linear_1_104)" fill-opacity="0.3"/>
<defs>
<linearGradient id="paint0_linear_1_104" x1="575.434" y1="129.698" x2="39361.2" y2="92399.7" gradientUnits="userSpaceOnUse">
<stop stop-color="#FF8F71"/>
<stop offset="1" stop-color="#FF3E55"/>
</linearGradient>
</defs>
</svg>
