<svg width="1440" height="600" viewBox="0 0 1440 600" fill="none" xmlns="http://www.w3.org/2000/svg">
<path fill-rule="evenodd" clip-rule="evenodd" d="M1946.86 636.874L1651.51 1367.87L922.035 1073.15L1179.92 434.864C1200.61 383.658 1258.89 358.918 1310.1 379.607L1946.86 636.874ZM732.27 144.887C933.71 226.274 1031.03 455.55 949.645 656.989L949.029 658.514C867.642 859.954 638.366 957.276 436.927 875.889C235.487 794.502 138.166 565.225 219.552 363.786L220.168 362.261C301.555 160.821 530.831 63.5 732.27 144.887ZM1442.97 -567.148L1185.08 71.1346C1164.39 122.343 1106.11 147.081 1054.9 126.392L418.145 -130.875L713.489 -861.876L1442.97 -567.148ZM2294.34 -223.172L1998.99 507.829L1362.23 250.562C1311.03 229.873 1286.29 171.59 1306.98 120.383L1564.86 -517.9L2294.34 -223.172Z" fill="url(#paint0_linear_5_4)" fill-opacity="0.3"/>
<defs>
<linearGradient id="paint0_linear_5_4" x1="1723.66" y1="-453.746" x2="94930.3" y2="221106" gradientUnits="userSpaceOnUse">
<stop stop-color="#FF8F71"/>
<stop offset="1" stop-color="#FF3E55"/>
</linearGradient>
</defs>
</svg>
