<svg id="visual" viewBox="0 0 900 600" width="900" height="600" xmlns="http://www.w3.org/2000/svg" xmlns:xlink="http://www.w3.org/1999/xlink" version="1.1"><rect x="0" y="0" width="900" height="600" fill="#fff"></rect><defs><linearGradient id="grad1_0" x1="33.3%" y1="0%" x2="100%" y2="100%"><stop offset="20%" stop-color="#d1d1de" stop-opacity="1"></stop><stop offset="80%" stop-color="#d1d1de" stop-opacity="1"></stop></linearGradient></defs><defs><linearGradient id="grad1_1" x1="33.3%" y1="0%" x2="100%" y2="100%"><stop offset="20%" stop-color="#d1d1de" stop-opacity="1"></stop><stop offset="80%" stop-color="#d7d7e3" stop-opacity="1"></stop></linearGradient></defs><defs><linearGradient id="grad1_2" x1="33.3%" y1="0%" x2="100%" y2="100%"><stop offset="20%" stop-color="#dedee7" stop-opacity="1"></stop><stop offset="80%" stop-color="#d7d7e3" stop-opacity="1"></stop></linearGradient></defs><defs><linearGradient id="grad1_3" x1="33.3%" y1="0%" x2="100%" y2="100%"><stop offset="20%" stop-color="#dedee7" stop-opacity="1"></stop><stop offset="80%" stop-color="#e5e5ec" stop-opacity="1"></stop></linearGradient></defs><defs><linearGradient id="grad1_4" x1="33.3%" y1="0%" x2="100%" y2="100%"><stop offset="20%" stop-color="#ebebf1" stop-opacity="1"></stop><stop offset="80%" stop-color="#e5e5ec" stop-opacity="1"></stop></linearGradient></defs><defs><linearGradient id="grad1_5" x1="33.3%" y1="0%" x2="100%" y2="100%"><stop offset="20%" stop-color="#ebebf1" stop-opacity="1"></stop><stop offset="80%" stop-color="#f2f2f5" stop-opacity="1"></stop></linearGradient></defs><defs><linearGradient id="grad1_6" x1="33.3%" y1="0%" x2="100%" y2="100%"><stop offset="20%" stop-color="#f8f8fa" stop-opacity="1"></stop><stop offset="80%" stop-color="#f2f2f5" stop-opacity="1"></stop></linearGradient></defs><defs><linearGradient id="grad1_7" x1="33.3%" y1="0%" x2="100%" y2="100%"><stop offset="20%" stop-color="#f8f8fa" stop-opacity="1"></stop><stop offset="80%" stop-color="#ffffff" stop-opacity="1"></stop></linearGradient></defs><defs><linearGradient id="grad2_0" x1="0%" y1="0%" x2="66.7%" y2="100%"><stop offset="20%" stop-color="#d1d1de" stop-opacity="1"></stop><stop offset="80%" stop-color="#d1d1de" stop-opacity="1"></stop></linearGradient></defs><defs><linearGradient id="grad2_1" x1="0%" y1="0%" x2="66.7%" y2="100%"><stop offset="20%" stop-color="#d7d7e3" stop-opacity="1"></stop><stop offset="80%" stop-color="#d1d1de" stop-opacity="1"></stop></linearGradient></defs><defs><linearGradient id="grad2_2" x1="0%" y1="0%" x2="66.7%" y2="100%"><stop offset="20%" stop-color="#d7d7e3" stop-opacity="1"></stop><stop offset="80%" stop-color="#dedee7" stop-opacity="1"></stop></linearGradient></defs><defs><linearGradient id="grad2_3" x1="0%" y1="0%" x2="66.7%" y2="100%"><stop offset="20%" stop-color="#e5e5ec" stop-opacity="1"></stop><stop offset="80%" stop-color="#dedee7" stop-opacity="1"></stop></linearGradient></defs><defs><linearGradient id="grad2_4" x1="0%" y1="0%" x2="66.7%" y2="100%"><stop offset="20%" stop-color="#e5e5ec" stop-opacity="1"></stop><stop offset="80%" stop-color="#ebebf1" stop-opacity="1"></stop></linearGradient></defs><defs><linearGradient id="grad2_5" x1="0%" y1="0%" x2="66.7%" y2="100%"><stop offset="20%" stop-color="#f2f2f5" stop-opacity="1"></stop><stop offset="80%" stop-color="#ebebf1" stop-opacity="1"></stop></linearGradient></defs><defs><linearGradient id="grad2_6" x1="0%" y1="0%" x2="66.7%" y2="100%"><stop offset="20%" stop-color="#f2f2f5" stop-opacity="1"></stop><stop offset="80%" stop-color="#f8f8fa" stop-opacity="1"></stop></linearGradient></defs><defs><linearGradient id="grad2_7" x1="0%" y1="0%" x2="66.7%" y2="100%"><stop offset="20%" stop-color="#ffffff" stop-opacity="1"></stop><stop offset="80%" stop-color="#f8f8fa" stop-opacity="1"></stop></linearGradient></defs><g transform="translate(900, 0)"><path d="M0 540.8C-66.9 553 -133.8 565.1 -167.1 514.4C-200.4 463.6 -200.1 350.1 -211.6 291.2C-223.1 232.4 -246.4 228.2 -301.8 219.2C-357.1 210.3 -444.6 196.5 -489.8 159.1C-535 121.8 -537.9 60.9 -540.8 0L0 0Z" fill="#fcfcfd"></path><path d="M0 473.2C-58.5 483.8 -117.1 494.4 -146.2 450.1C-175.4 405.7 -175.1 306.3 -185.2 254.8C-195.2 203.3 -215.6 199.7 -264 191.8C-312.5 184 -389 171.9 -428.6 139.3C-468.1 106.6 -470.7 53.3 -473.2 0L0 0Z" fill="#f5f5f8"></path><path d="M0 405.6C-50.2 414.7 -100.4 423.8 -125.3 385.8C-150.3 347.7 -150.1 262.6 -158.7 218.4C-167.3 174.3 -184.8 171.2 -226.3 164.4C-267.9 157.7 -333.5 147.4 -367.3 119.4C-401.2 91.4 -403.4 45.7 -405.6 0L0 0Z" fill="#eeeef3"></path><path d="M0 338C-41.8 345.6 -83.6 353.2 -104.5 321.5C-125.3 289.8 -125.1 218.8 -132.3 182C-139.4 145.2 -154 142.6 -188.6 137C-223.2 131.4 -277.9 122.8 -306.1 99.5C-334.4 76.1 -336.2 38.1 -338 0L0 0Z" fill="#e8e8ee"></path><path d="M0 270.4C-33.5 276.5 -66.9 282.5 -83.6 257.2C-100.2 231.8 -100.1 175.1 -105.8 145.6C-111.5 116.2 -123.2 114.1 -150.9 109.6C-178.6 105.1 -222.3 98.2 -244.9 79.6C-267.5 60.9 -269 30.5 -270.4 0L0 0Z" fill="#e1e1ea"></path><path d="M0 202.8C-25.1 207.4 -50.2 211.9 -62.7 192.9C-75.2 173.9 -75 131.3 -79.4 109.2C-83.7 87.1 -92.4 85.6 -113.2 82.2C-133.9 78.9 -166.7 73.7 -183.7 59.7C-200.6 45.7 -201.7 22.8 -202.8 0L0 0Z" fill="#dbdbe5"></path><path d="M0 135.2C-16.7 138.2 -33.5 141.3 -41.8 128.6C-50.1 115.9 -50 87.5 -52.9 72.8C-55.8 58.1 -61.6 57.1 -75.4 54.8C-89.3 52.6 -111.2 49.1 -122.4 39.8C-133.7 30.5 -134.5 15.2 -135.2 0L0 0Z" fill="#d4d4e0"></path><path d="M0 67.6C-8.4 69.1 -16.7 70.6 -20.9 64.3C-25.1 58 -25 43.8 -26.5 36.4C-27.9 29 -30.8 28.5 -37.7 27.4C-44.6 26.3 -55.6 24.6 -61.2 19.9C-66.9 15.2 -67.2 7.6 -67.6 0L0 0Z" fill="#d1d1de"></path></g><g transform="translate(0, 600)"><path d="M0 -540.8C68.6 -549.3 137.2 -557.9 164.4 -506C191.6 -454.1 177.4 -341.8 226.3 -311.5C275.2 -281.2 387.3 -332.9 437.5 -317.9C487.8 -302.9 476.2 -221.1 483.1 -157C490 -92.9 515.4 -46.4 540.8 0L0 0Z" fill="#fcfcfd"></path><path d="M0 -473.2C60 -480.7 120.1 -488.1 143.8 -442.7C167.6 -397.3 155.2 -299 198 -272.5C240.8 -246 338.9 -291.3 382.8 -278.2C426.8 -265 416.7 -193.5 422.7 -137.4C428.8 -81.3 451 -40.6 473.2 0L0 0Z" fill="#f5f5f8"></path><path d="M0 -405.6C51.5 -412 102.9 -418.4 123.3 -379.5C143.7 -340.5 133 -256.3 169.7 -233.6C206.4 -210.9 290.5 -249.7 328.2 -238.4C365.8 -227.2 357.2 -165.8 362.4 -117.7C367.5 -69.7 386.6 -34.8 405.6 0L0 0Z" fill="#eeeef3"></path><path d="M0 -338C42.9 -343.3 85.8 -348.7 102.7 -316.2C119.7 -283.8 110.9 -213.6 141.4 -194.7C172 -175.7 242.1 -208.1 273.5 -198.7C304.9 -189.3 297.6 -138.2 302 -98.1C306.3 -58 322.2 -29 338 0L0 0Z" fill="#e8e8ee"></path><path d="M0 -270.4C34.3 -274.7 68.6 -278.9 82.2 -253C95.8 -227 88.7 -170.9 113.1 -155.7C137.6 -140.6 193.6 -166.5 218.8 -158.9C243.9 -151.4 238.1 -110.5 241.6 -78.5C245 -46.4 257.7 -23.2 270.4 0L0 0Z" fill="#e1e1ea"></path><path d="M0 -202.8C25.7 -206 51.5 -209.2 61.6 -189.7C71.8 -170.3 66.5 -128.2 84.9 -116.8C103.2 -105.4 145.2 -124.8 164.1 -119.2C182.9 -113.6 178.6 -82.9 181.2 -58.9C183.8 -34.8 193.3 -17.4 202.8 0L0 0Z" fill="#dbdbe5"></path><path d="M0 -135.2C17.2 -137.3 34.3 -139.5 41.1 -126.5C47.9 -113.5 44.3 -85.4 56.6 -77.9C68.8 -70.3 96.8 -83.2 109.4 -79.5C121.9 -75.7 119.1 -55.3 120.8 -39.2C122.5 -23.2 128.9 -11.6 135.2 0L0 0Z" fill="#d4d4e0"></path><path d="M0 -67.6C8.6 -68.7 17.2 -69.7 20.5 -63.2C23.9 -56.8 22.2 -42.7 28.3 -38.9C34.4 -35.1 48.4 -41.6 54.7 -39.7C61 -37.9 59.5 -27.6 60.4 -19.6C61.3 -11.6 64.4 -5.8 67.6 0L0 0Z" fill="#d1d1de"></path></g></svg>