<svg width="694" height="786" viewBox="0 0 694 786" fill="none" xmlns="http://www.w3.org/2000/svg">
<path opacity="0.5" d="M444.5 394C444.5 577.635 295.635 726.5 112 726.5C-71.6347 726.5 -220.5 577.635 -220.5 394V392C-220.5 208.365 -71.6347 59.5 112 59.5C295.635 59.5 444.5 208.365 444.5 392V394Z" stroke="#2D2E40"/>
<path opacity="0.25" d="M503.5 394C503.5 610.219 328.219 785.5 112 785.5C-104.219 785.5 -279.5 610.219 -279.5 394V392C-279.5 175.781 -104.219 0.5 112 0.5C328.219 0.5 503.5 175.781 503.5 392V394Z" stroke="#2D2E40"/>
<path opacity="0.08" d="M387 394C387 545.878 263.878 669 112 669C-39.8783 669 -163 545.878 -163 394V392C-163 240.122 -39.8783 117 112 117C263.878 117 387 240.122 387 392V394Z" fill="#2D2E40"/>
<g filter="url(#filter0_d_5_136)">
<path d="M518 208H4C-2.62742 208 -8 213.373 -8 220V564C-8 570.627 -2.62742 576 4 576H518C524.627 576 530 570.627 530 564V220C530 213.373 524.627 208 518 208Z" fill="#535353"/>
<path d="M517 211H5C-0.522848 211 -5 215.477 -5 221V563C-5 568.523 -0.522848 573 5 573H517C522.523 573 527 568.523 527 563V221C527 215.477 522.523 211 517 211Z" fill="#1D1D25"/>
<path d="M512 224H12C10.3431 224 9 225.343 9 227V556.872C9 558.529 10.3431 559.872 12 559.872H512C513.657 559.872 515 558.529 515 556.872V227C515 225.343 513.657 224 512 224Z" fill="url(#paint0_linear_5_136)"/>
<mask id="mask0_5_136" style="mask-type:luminance" maskUnits="userSpaceOnUse" x="9" y="224" width="506" height="336">
<path d="M512 224H12C10.3431 224 9 225.343 9 227V556.872C9 558.529 10.3431 559.872 12 559.872H512C513.657 559.872 515 558.529 515 556.872V227C515 225.343 513.657 224 512 224Z" fill="white"/>
</mask>
<g mask="url(#mask0_5_136)">
<path d="M511.675 284.293H11.675C10.0181 284.293 8.67499 285.636 8.67499 287.293V557.131C8.67499 558.788 10.0181 560.131 11.675 560.131H511.675C513.332 560.131 514.675 558.788 514.675 557.131V287.293C514.675 285.636 513.332 284.293 511.675 284.293Z" fill="#F9F6F6"/>
</g>
<mask id="mask1_5_136" style="mask-type:luminance" maskUnits="userSpaceOnUse" x="9" y="224" width="506" height="336">
<path d="M512 224H12C10.3431 224 9 225.343 9 227V556.872C9 558.529 10.3431 559.872 12 559.872H512C513.657 559.872 515 558.529 515 556.872V227C515 225.343 513.657 224 512 224Z" fill="white"/>
</mask>
<g mask="url(#mask1_5_136)">
<path d="M184.121 261.46H83.475C81.8181 261.46 80.475 262.803 80.475 264.46V515.001C80.475 516.658 81.8181 518.001 83.475 518.001H184.121C185.778 518.001 187.121 516.658 187.121 515.001V264.46C187.121 262.803 185.778 261.46 184.121 261.46Z" fill="white"/>
<path d="M440.524 261.46H208.273C206.616 261.46 205.273 262.803 205.273 264.46V515.001C205.273 516.658 206.616 518.001 208.273 518.001H440.524C442.181 518.001 443.524 516.658 443.524 515.001V264.46C443.524 262.803 442.181 261.46 440.524 261.46Z" fill="white"/>
<path d="M430.314 275.082H218.484C216.827 275.082 215.484 276.425 215.484 278.082V332.244C215.484 333.901 216.827 335.244 218.484 335.244H430.314C431.971 335.244 433.314 333.901 433.314 332.244V278.082C433.314 276.425 431.971 275.082 430.314 275.082Z" fill="#E7E7E7"/>
<path d="M277.152 347.73H218.484C216.827 347.73 215.484 349.073 215.484 350.73V404.892C215.484 406.549 216.827 407.892 218.484 407.892H277.152C278.809 407.892 280.152 406.549 280.152 404.892V350.73C280.152 349.073 278.809 347.73 277.152 347.73Z" fill="#E7E7E7"/>
<path d="M430.314 347.73H299.036C297.379 347.73 296.036 349.073 296.036 350.73V404.892C296.036 406.549 297.379 407.892 299.036 407.892H430.314C431.971 407.892 433.314 406.549 433.314 404.892V350.73C433.314 349.073 431.971 347.73 430.314 347.73Z" fill="#E7E7E7"/>
</g>
<g opacity="0.098">
<path d="M271.1 192H260.5C259.672 192 259 192.672 259 193.5C259 194.328 259.672 195 260.5 195H271.1C271.928 195 272.6 194.328 272.6 193.5C272.6 192.672 271.928 192 271.1 192Z" fill="#4A5166"/>
<path d="M277.5 192H277.3C276.472 192 275.8 192.672 275.8 193.5C275.8 194.328 276.472 195 277.3 195H277.5C278.328 195 279 194.328 279 193.5C279 192.672 278.328 192 277.5 192Z" fill="#4A5166"/>
</g>
<path d="M-87 572H605.9C606.696 572 607.459 572.316 608.021 572.879C608.584 573.441 608.9 574.204 608.9 575V589.105H-90V575C-90 574.204 -89.6839 573.441 -89.1213 572.879C-88.5587 572.316 -87.7956 572 -87 572V572Z" fill="#52526F"/>
<mask id="mask2_5_136" style="mask-type:luminance" maskUnits="userSpaceOnUse" x="-90" y="572" width="699" height="18">
<path d="M-87 572H605.9C606.696 572 607.459 572.316 608.021 572.879C608.584 573.441 608.9 574.204 608.9 575V589.105H-90V575C-90 574.204 -89.6839 573.441 -89.1213 572.879C-88.5587 572.316 -87.7956 572 -87 572V572Z" fill="white"/>
</mask>
<g mask="url(#mask2_5_136)">
<path d="M306.527 530.092H212.371C206.848 530.092 202.371 534.569 202.371 540.092V572.263C202.371 577.786 206.848 582.263 212.371 582.263H306.527C312.05 582.263 316.527 577.786 316.527 572.263V540.092C316.527 534.569 312.05 530.092 306.527 530.092Z" fill="#2F2F47"/>
</g>
<path d="M-90 589H609C609 590.591 608.368 592.117 607.243 593.243C606.117 594.368 604.591 595 603 595H-84C-85.5913 595 -87.1174 594.368 -88.2426 593.243C-89.3679 592.117 -90 590.591 -90 589Z" fill="#393A56"/>
</g>
<defs>
<filter id="filter0_d_5_136" x="-130" y="172" width="779" height="483" filterUnits="userSpaceOnUse" color-interpolation-filters="sRGB">
<feFlood flood-opacity="0" result="BackgroundImageFix"/>
<feColorMatrix in="SourceAlpha" type="matrix" values="0 0 0 0 0 0 0 0 0 0 0 0 0 0 0 0 0 0 127 0" result="hardAlpha"/>
<feOffset dy="20"/>
<feGaussianBlur stdDeviation="20"/>
<feColorMatrix type="matrix" values="0 0 0 0 0.421822 0 0 0 0 0.554338 0 0 0 0 0.89371 0 0 0 0.243444 0"/>
<feBlend mode="normal" in2="BackgroundImageFix" result="effect1_dropShadow_5_136"/>
<feBlend mode="normal" in="SourceGraphic" in2="effect1_dropShadow_5_136" result="shape"/>
</filter>
<linearGradient id="paint0_linear_5_136" x1="9" y1="224" x2="515" y2="224" gradientUnits="userSpaceOnUse">
<stop stop-color="#FF8F70"/>
<stop offset="1" stop-color="#FF3D54"/>
</linearGradient>
</defs>
</svg>
