<svg width="375" height="391" viewBox="0 0 375 391" fill="none" xmlns="http://www.w3.org/2000/svg">
<g clip-path="url(#clip0_1_232)">
<path d="M156.25 16.8826H47.5543C39.3001 16.8826 32.6087 23.5341 32.6087 31.7392V287.679C32.6087 295.884 39.3001 302.535 47.5543 302.535H156.25C164.504 302.535 171.196 295.884 171.196 287.679V31.7392C171.196 23.5341 164.504 16.8826 156.25 16.8826Z" fill="url(#paint0_linear_1_232)"/>
<path d="M71.3315 167.178V150.108H77.6603C78.8383 150.108 79.856 150.288 80.7147 150.648C81.5734 151.009 82.2357 151.522 82.7018 152.187C83.1678 152.852 83.4015 153.633 83.4015 154.531C83.4015 155.348 83.2208 156.066 82.8614 156.683C82.5015 157.3 81.9742 157.804 81.3397 158.138C82.2228 158.474 82.9103 159.007 83.4008 159.736C83.8913 160.465 84.1366 161.327 84.1366 162.321C84.1366 163.314 83.875 164.171 83.3519 164.893C82.8288 165.615 82.0924 166.176 81.144 166.576C80.1957 166.977 79.0754 167.177 77.7833 167.177L71.3315 167.178ZM74.8641 153.064V156.983H77.2683C78.07 156.983 78.6868 156.819 79.1202 156.491C79.5537 156.162 79.7704 155.677 79.7704 155.036C79.7704 154.394 79.553 153.906 79.1202 153.569C78.6868 153.233 78.0693 153.065 77.2683 153.065H74.8635L74.8641 153.064ZM74.8641 164.22H77.6114C78.5272 164.22 79.2351 164.028 79.7337 163.643C80.2323 163.258 80.4817 162.705 80.4817 161.984C80.4817 161.263 80.2323 160.71 79.7337 160.326C79.2344 159.941 78.5272 159.748 77.6114 159.748H74.8641V164.22ZM86.32 167.178V149.242H89.7548V167.178H86.32ZM98.733 167.538C97.7683 167.538 96.877 167.37 96.0591 167.033C95.2609 166.71 94.5353 166.232 93.9246 165.627C93.3152 165.019 92.8355 164.295 92.5143 163.499C92.1787 162.682 92.0116 161.792 92.0116 160.83C92.0116 159.868 92.1828 158.983 92.5265 158.173C92.8605 157.378 93.348 156.655 93.9613 156.046C94.5783 155.435 95.3124 154.952 96.1203 154.627C96.9463 154.29 97.8499 154.122 98.8308 154.122C99.7955 154.122 100.688 154.291 101.505 154.627C102.303 154.951 103.029 155.429 103.639 156.034C104.247 156.639 104.726 157.358 105.05 158.15C105.385 158.959 105.552 159.845 105.552 160.806C105.552 161.768 105.381 162.657 105.037 163.474C104.706 164.275 104.218 165.002 103.603 165.615C102.986 166.226 102.251 166.708 101.444 167.033C100.618 167.37 99.714 167.538 98.733 167.538ZM98.7819 164.508C99.4035 164.508 99.9592 164.348 100.45 164.028C100.941 163.707 101.329 163.271 101.615 162.717C101.902 162.164 102.045 161.536 102.045 160.83C102.045 160.125 101.902 159.496 101.615 158.943C101.329 158.39 100.941 157.953 100.45 157.632C99.9592 157.312 99.4035 157.152 98.7819 157.152C98.1603 157.152 97.6046 157.312 97.1141 157.632C96.623 157.953 96.2351 158.39 95.9484 158.943C95.6631 159.496 95.519 160.124 95.519 160.83C95.519 161.536 95.6624 162.164 95.9484 162.717C96.2351 163.271 96.623 163.707 97.1141 164.028C97.6046 164.348 98.1603 164.508 98.7819 164.508ZM113.132 166.817C112.342 166.822 111.56 166.658 110.839 166.336C110.136 166.021 109.506 165.567 108.987 165.001C108.455 164.419 108.039 163.742 107.76 163.006C107.466 162.245 107.319 161.423 107.319 160.542C107.319 159.628 107.47 158.782 107.772 158.005C108.06 157.252 108.494 156.562 109.048 155.974C109.59 155.401 110.241 154.939 110.962 154.615C111.689 154.287 112.478 154.122 113.329 154.122C114.163 154.122 114.915 154.287 115.586 154.615C116.255 154.943 116.83 155.435 117.254 156.045L117.327 154.483H120.492V165.662C120.492 166.64 120.333 167.53 120.014 168.331C119.711 169.108 119.247 169.813 118.652 170.399C118.053 170.983 117.339 171.437 116.555 171.733C115.745 172.046 114.85 172.202 113.869 172.202C112.904 172.202 112.037 172.054 111.268 171.757C110.524 171.476 109.842 171.056 109.257 170.519C108.689 169.996 108.23 169.367 107.908 168.668L111.195 167.875C111.477 168.328 111.87 168.704 112.336 168.969C112.802 169.233 113.329 169.365 113.918 169.365C114.556 169.365 115.107 169.225 115.573 168.944C116.042 168.662 116.42 168.253 116.665 167.766C116.927 167.262 117.058 166.672 117.058 165.999V164.966C116.614 165.544 116.038 166.01 115.377 166.324C114.698 166.652 113.95 166.817 113.132 166.817ZM113.967 163.835C114.571 163.835 115.108 163.687 115.573 163.391C116.042 163.091 116.427 162.677 116.69 162.189C116.968 161.684 117.107 161.111 117.107 160.469C117.107 159.828 116.968 159.255 116.69 158.751C116.427 158.262 116.042 157.848 115.573 157.549C115.107 157.252 114.572 157.103 113.967 157.103C113.362 157.103 112.826 157.252 112.36 157.549C111.891 157.848 111.507 158.262 111.244 158.751C110.965 159.255 110.827 159.829 110.827 160.469C110.827 161.111 110.966 161.684 111.244 162.189C111.522 162.693 111.894 163.094 112.36 163.391C112.826 163.687 113.361 163.835 113.967 163.835ZM123.24 167.178V154.482H126.404L126.527 156.405C126.854 155.733 127.296 155.216 127.851 154.855C128.408 154.494 129.062 154.314 129.815 154.314C130.043 154.314 130.272 154.334 130.501 154.374C130.73 154.415 130.934 154.467 131.114 154.53L130.746 157.849C130.567 157.785 130.382 157.74 130.194 157.716C130.003 157.692 129.81 157.68 129.618 157.68C128.669 157.68 127.942 157.965 127.435 158.533C126.927 159.103 126.674 159.908 126.674 160.95V167.176H123.24V167.178Z" fill="white"/>
<g filter="url(#filter0_d_1_232)">
<path d="M166.061 284.906C166.061 292.055 160.752 298.215 153.562 298.215H51.0367C43.8465 298.215 37.5951 292.055 37.5951 284.906V33.805C37.5951 26.6556 43.8465 21.4287 51.0367 21.4287H62.8893C65.3954 21.4287 66.3206 21.1437 66.4728 24.3021C66.5516 25.9431 67.1569 27.2181 68.127 28.2736C69.0958 29.3095 70.43 30.1604 71.9626 30.6378C73.0027 30.962 74.161 31.255 75.2649 31.255H129.444C130.548 31.255 131.706 30.8944 132.746 30.571C134.28 30.0935 135.613 29.2967 136.582 28.2803C137.552 27.2437 138.158 26.0221 138.236 24.3818C138.387 21.2241 139.314 21.4287 141.82 21.4287H153.562C160.752 21.4287 166.061 26.6556 166.061 33.805V284.906ZM94.3254 22.6564H110.383C111.065 22.6564 111.619 23.0765 111.619 23.6795C111.619 24.2825 111.065 24.7033 110.383 24.7033H94.3254C93.6427 24.7033 93.0904 24.2825 93.0904 23.6795C93.0904 23.0765 93.6427 22.6564 94.3254 22.6564ZM118.825 23.0089C118.825 23.4841 118.635 23.9398 118.297 24.2758C117.959 24.6117 117.5 24.8005 117.022 24.8005C116.544 24.8005 116.086 24.6117 115.748 24.2758C115.41 23.9398 115.22 23.4841 115.22 23.0089C115.22 22.5338 115.41 22.0781 115.748 21.7421C116.086 21.4061 116.544 21.2173 117.022 21.2173C117.5 21.2173 117.959 21.4061 118.297 21.7421C118.635 22.0781 118.825 22.5338 118.825 23.0089ZM173.885 80.388V34.612C173.885 23.0346 164.446 13.6492 152.803 13.6492H50.3723C38.3634 13.6492 28.5367 23.4209 28.5367 35.3636V52.1374C28.2091 52.1374 27.8949 52.2667 27.6631 52.497C27.4314 52.7272 27.3011 53.0394 27.3009 53.3651V61.9637C27.3009 62.2896 27.4311 62.6021 27.6628 62.8326C27.8946 63.063 28.2089 63.1926 28.5367 63.1928V73.4283C28.2089 73.4285 27.8946 73.5581 27.6628 73.7886C27.4311 74.019 27.3009 74.3315 27.3009 74.6574V93.0823C27.3013 93.408 27.4316 93.7201 27.6633 93.9503C27.895 94.1805 28.2091 94.3099 28.5367 94.31V100.452C28.2091 100.452 27.895 100.581 27.6633 100.812C27.4316 101.042 27.3013 101.354 27.3009 101.68V120.105C27.3009 120.431 27.4311 120.744 27.6628 120.974C27.8946 121.205 28.2089 121.334 28.5367 121.334V285.849C28.5367 297.829 38.3933 307.632 50.4409 307.632H152.803C164.397 307.632 173.885 298.198 173.885 286.669V114.372H174.296C174.458 114.372 174.619 114.34 174.769 114.279C174.919 114.217 175.055 114.126 175.17 114.012C175.285 113.898 175.376 113.763 175.438 113.614C175.5 113.465 175.532 113.305 175.532 113.144V81.6171C175.532 80.9384 174.979 80.388 174.296 80.388H173.885Z" fill="black"/>
</g>
<path d="M166.061 284.906C166.061 292.055 160.752 298.215 153.562 298.215H51.0367C43.8465 298.215 37.5951 292.055 37.5951 284.906V33.805C37.5951 26.6556 43.8465 21.4287 51.0367 21.4287H62.8893C65.3954 21.4287 66.3206 21.1437 66.4728 24.3021C66.5516 25.9431 67.1569 27.2181 68.127 28.2736C69.0958 29.3095 70.43 30.1604 71.9626 30.6378C73.0027 30.962 74.161 31.255 75.2649 31.255H129.444C130.548 31.255 131.706 30.8944 132.746 30.571C134.28 30.0935 135.613 29.2967 136.582 28.2803C137.552 27.2437 138.158 26.0221 138.236 24.3818C138.387 21.2241 139.314 21.4287 141.82 21.4287H153.562C160.752 21.4287 166.061 26.6556 166.061 33.805V284.906ZM94.3254 22.6564H110.383C111.065 22.6564 111.619 23.0765 111.619 23.6795C111.619 24.2825 111.065 24.7033 110.383 24.7033H94.3254C93.6427 24.7033 93.0904 24.2825 93.0904 23.6795C93.0904 23.0765 93.6427 22.6564 94.3254 22.6564ZM118.825 23.0089C118.825 23.4841 118.635 23.9398 118.297 24.2758C117.959 24.6117 117.5 24.8005 117.022 24.8005C116.544 24.8005 116.086 24.6117 115.748 24.2758C115.41 23.9398 115.22 23.4841 115.22 23.0089C115.22 22.5338 115.41 22.0781 115.748 21.7421C116.086 21.4061 116.544 21.2173 117.022 21.2173C117.5 21.2173 117.959 21.4061 118.297 21.7421C118.635 22.0781 118.825 22.5338 118.825 23.0089ZM173.885 80.388V34.612C173.885 23.0346 164.446 13.6492 152.803 13.6492H50.3723C38.3634 13.6492 28.5367 23.4209 28.5367 35.3636V52.1374C28.2091 52.1374 27.8949 52.2667 27.6631 52.497C27.4314 52.7272 27.3011 53.0394 27.3009 53.3651V61.9637C27.3009 62.2896 27.4311 62.6021 27.6628 62.8326C27.8946 63.063 28.2089 63.1926 28.5367 63.1928V73.4283C28.2089 73.4285 27.8946 73.5581 27.6628 73.7886C27.4311 74.019 27.3009 74.3315 27.3009 74.6574V93.0823C27.3013 93.408 27.4316 93.7201 27.6633 93.9503C27.895 94.1805 28.2091 94.3099 28.5367 94.31V100.452C28.2091 100.452 27.895 100.581 27.6633 100.812C27.4316 101.042 27.3013 101.354 27.3009 101.68V120.105C27.3009 120.431 27.4311 120.744 27.6628 120.974C27.8946 121.205 28.2089 121.334 28.5367 121.334V285.849C28.5367 297.829 38.3933 307.632 50.4409 307.632H152.803C164.397 307.632 173.885 298.198 173.885 286.669V114.372H174.296C174.458 114.372 174.619 114.34 174.769 114.279C174.919 114.217 175.055 114.126 175.17 114.012C175.285 113.898 175.376 113.763 175.438 113.614C175.5 113.465 175.532 113.305 175.532 113.144V81.6171C175.532 80.9384 174.979 80.388 174.296 80.388H173.885Z" fill="#1D1D25"/>
<path fill-rule="evenodd" clip-rule="evenodd" d="M110.383 22.6564H94.3254C93.6427 22.6564 93.0897 23.0778 93.0897 23.6808C93.0897 24.2832 93.6427 24.7039 94.3261 24.7039H110.383C111.066 24.7039 111.62 24.2832 111.62 23.6808C111.62 23.0778 111.066 22.6564 110.383 22.6564ZM117.023 21.218C116.545 21.2182 116.087 21.4071 115.749 21.7432C115.411 22.0793 115.221 22.5351 115.221 23.0103C115.222 23.4854 115.412 23.941 115.75 24.2769C116.088 24.6128 116.546 24.8014 117.024 24.8012C117.502 24.801 117.961 24.6121 118.299 24.276C118.637 23.9398 118.826 23.4841 118.826 23.0089C118.826 22.5338 118.636 22.0781 118.298 21.7423C117.96 21.4064 117.501 21.2178 117.023 21.218Z" fill="black"/>
<path d="M328.125 59.4266H219.429C211.175 59.4266 204.484 66.0782 204.484 74.2833V330.223C204.484 338.428 211.175 345.079 219.429 345.079H328.125C336.379 345.079 343.071 338.428 343.071 330.223V74.2833C343.071 66.0782 336.379 59.4266 328.125 59.4266Z" fill="url(#paint1_linear_1_232)"/>
<path d="M322.918 63.4785H224.185C215.931 63.4785 209.239 70.13 209.239 78.3351V328.414C209.239 336.619 215.931 343.27 224.185 343.27H322.918C331.172 343.27 337.863 336.619 337.863 328.414V78.3351C337.863 70.13 331.172 63.4785 322.918 63.4785Z" fill="white"/>
<path d="M322.918 63.4785H224.185C215.931 63.4785 209.239 70.13 209.239 78.3351V98.1005C209.239 106.306 215.931 112.957 224.185 112.957H322.918C331.172 112.957 337.863 106.306 337.863 98.1005V78.3351C337.863 70.13 331.172 63.4785 322.918 63.4785Z" fill="url(#paint2_linear_1_232)"/>
<g filter="url(#filter1_d_1_232)">
<path d="M327.44 94.6977H219.662C218.162 94.6977 216.945 95.9071 216.945 97.3989V131.462C216.945 132.954 218.162 134.163 219.662 134.163H327.44C328.941 134.163 330.158 132.954 330.158 131.462V97.3989C330.158 95.9071 328.941 94.6977 327.44 94.6977Z" fill="black"/>
</g>
<path d="M327.44 94.6977H219.662C218.162 94.6977 216.945 95.9071 216.945 97.3989V131.462C216.945 132.954 218.162 134.163 219.662 134.163H327.44C328.941 134.163 330.158 132.954 330.158 131.462V97.3989C330.158 95.9071 328.941 94.6977 327.44 94.6977Z" fill="white"/>
<g filter="url(#filter2_d_1_232)">
<path d="M327.44 143.588H219.662C218.162 143.588 216.945 144.797 216.945 146.289V180.352C216.945 181.843 218.162 183.053 219.662 183.053H327.44C328.941 183.053 330.158 181.843 330.158 180.352V146.289C330.158 144.797 328.941 143.588 327.44 143.588Z" fill="black"/>
</g>
<path d="M327.44 143.588H219.662C218.162 143.588 216.945 144.797 216.945 146.289V180.352C216.945 181.843 218.162 183.053 219.662 183.053H327.44C328.941 183.053 330.158 181.843 330.158 180.352V146.289C330.158 144.797 328.941 143.588 327.44 143.588Z" fill="white"/>
<g filter="url(#filter3_d_1_232)">
<path d="M327.44 192.477H219.662C218.162 192.477 216.945 193.687 216.945 195.179V229.242C216.945 230.733 218.162 231.943 219.662 231.943H327.44C328.941 231.943 330.158 230.733 330.158 229.242V195.179C330.158 193.687 328.941 192.477 327.44 192.477Z" fill="black"/>
</g>
<path d="M327.44 192.477H219.662C218.162 192.477 216.945 193.687 216.945 195.179V229.242C216.945 230.733 218.162 231.943 219.662 231.943H327.44C328.941 231.943 330.158 230.733 330.158 229.242V195.179C330.158 193.687 328.941 192.477 327.44 192.477Z" fill="white"/>
<g filter="url(#filter4_d_1_232)">
<path d="M327.44 241.368H219.662C218.162 241.368 216.945 242.577 216.945 244.069V278.132C216.945 279.624 218.162 280.833 219.662 280.833H327.44C328.941 280.833 330.158 279.624 330.158 278.132V244.069C330.158 242.577 328.941 241.368 327.44 241.368Z" fill="black"/>
</g>
<path d="M327.44 241.368H219.662C218.162 241.368 216.945 242.577 216.945 244.069V278.132C216.945 279.624 218.162 280.833 219.662 280.833H327.44C328.941 280.833 330.158 279.624 330.158 278.132V244.069C330.158 242.577 328.941 241.368 327.44 241.368Z" fill="white"/>
<g filter="url(#filter5_d_1_232)">
<path d="M327.44 290.258H219.662C218.162 290.258 216.945 291.467 216.945 292.959V327.022C216.945 328.514 218.162 329.723 219.662 329.723H327.44C328.941 329.723 330.158 328.514 330.158 327.022V292.959C330.158 291.467 328.941 290.258 327.44 290.258Z" fill="black"/>
</g>
<path d="M327.44 290.258H219.662C218.162 290.258 216.945 291.467 216.945 292.959V327.022C216.945 328.514 218.162 329.723 219.662 329.723H327.44C328.941 329.723 330.158 328.514 330.158 327.022V292.959C330.158 291.467 328.941 290.258 327.44 290.258Z" fill="white"/>
<path d="M243.207 209.722V192.652H249.535C250.713 192.652 251.731 192.832 252.59 193.192C253.448 193.553 254.111 194.066 254.577 194.732C255.043 195.396 255.277 196.177 255.277 197.075C255.277 197.892 255.096 198.61 254.736 199.227C254.377 199.844 253.849 200.348 253.215 200.682C254.098 201.018 254.785 201.551 255.276 202.28C255.766 203.009 256.012 203.871 256.012 204.865C256.012 205.859 255.75 206.715 255.227 207.437C254.704 208.159 253.967 208.72 253.019 209.12C252.071 209.521 250.95 209.721 249.658 209.721L243.207 209.722ZM246.739 195.608V199.528H249.143C249.945 199.528 250.562 199.363 250.995 199.035C251.429 198.706 251.645 198.221 251.645 197.58C251.645 196.938 251.428 196.45 250.995 196.113C250.562 195.777 249.944 195.609 249.143 195.609H246.738L246.739 195.608ZM246.739 206.764H249.486C250.402 206.764 251.11 206.572 251.609 206.187C252.107 205.802 252.357 205.249 252.357 204.528C252.357 203.807 252.107 203.254 251.609 202.87C251.109 202.485 250.402 202.292 249.486 202.292H246.739V206.764ZM258.195 209.722V191.786H261.63V209.722H258.195ZM270.608 210.082C269.643 210.082 268.752 209.914 267.934 209.577C267.136 209.254 266.41 208.776 265.8 208.171C265.19 207.563 264.711 206.839 264.389 206.043C264.054 205.226 263.887 204.336 263.887 203.374C263.887 202.412 264.058 201.527 264.402 200.717C264.736 199.922 265.223 199.199 265.836 198.59C266.453 197.979 267.187 197.496 267.995 197.171C268.821 196.834 269.725 196.666 270.706 196.666C271.671 196.666 272.563 196.835 273.38 197.171C274.178 197.495 274.904 197.973 275.514 198.578C276.122 199.183 276.601 199.902 276.925 200.694C277.26 201.503 277.427 202.389 277.427 203.35C277.427 204.312 277.256 205.201 276.912 206.019C276.581 206.819 276.093 207.546 275.478 208.159C274.861 208.77 274.126 209.252 273.319 209.577C272.493 209.914 271.589 210.082 270.608 210.082ZM270.657 207.052C271.279 207.052 271.834 206.892 272.325 206.572C272.816 206.252 273.204 205.815 273.491 205.262C273.777 204.708 273.92 204.08 273.92 203.374C273.92 202.669 273.777 202.04 273.491 201.487C273.204 200.934 272.816 200.497 272.325 200.177C271.834 199.856 271.279 199.696 270.657 199.696C270.035 199.696 269.48 199.856 268.989 200.177C268.498 200.497 268.11 200.934 267.823 201.487C267.538 202.04 267.394 202.668 267.394 203.374C267.394 204.08 267.537 204.708 267.823 205.262C268.11 205.815 268.498 206.252 268.989 206.572C269.48 206.892 270.035 207.052 270.657 207.052ZM285.007 209.361C284.217 209.366 283.435 209.202 282.714 208.88C282.011 208.566 281.381 208.111 280.862 207.545C280.33 206.963 279.914 206.286 279.635 205.55C279.341 204.789 279.194 203.967 279.194 203.086C279.194 202.172 279.345 201.327 279.647 200.549C279.935 199.796 280.369 199.106 280.923 198.518C281.465 197.945 282.116 197.483 282.837 197.159C283.564 196.831 284.353 196.666 285.204 196.666C286.038 196.666 286.79 196.831 287.461 197.159C288.13 197.487 288.705 197.979 289.129 198.59L289.202 197.027H292.367V208.207C292.367 209.184 292.208 210.074 291.889 210.875C291.586 211.652 291.122 212.357 290.527 212.943C289.928 213.527 289.214 213.981 288.43 214.278C287.62 214.59 286.725 214.746 285.744 214.746C284.779 214.746 283.912 214.598 283.143 214.301C282.399 214.02 281.717 213.6 281.132 213.063C280.564 212.54 280.105 211.911 279.783 211.212L283.07 210.419C283.353 210.872 283.745 211.248 284.211 211.513C284.677 211.777 285.204 211.909 285.793 211.909C286.431 211.909 286.982 211.769 287.448 211.489C287.917 211.206 288.295 210.797 288.54 210.31C288.802 209.806 288.933 209.216 288.933 208.544V207.51C288.489 208.088 287.913 208.554 287.252 208.868C286.573 209.197 285.825 209.361 285.007 209.361ZM285.842 206.379C286.446 206.379 286.983 206.231 287.448 205.935C287.917 205.635 288.302 205.221 288.565 204.733C288.843 204.228 288.982 203.655 288.982 203.013C288.982 202.372 288.843 201.799 288.565 201.295C288.302 200.806 287.917 200.392 287.448 200.093C286.982 199.796 286.447 199.647 285.842 199.647C285.237 199.647 284.701 199.796 284.235 200.093C283.766 200.392 283.382 200.806 283.119 201.295C282.84 201.799 282.702 202.373 282.702 203.013C282.702 203.655 282.841 204.228 283.119 204.733C283.397 205.237 283.769 205.638 284.235 205.935C284.701 206.231 285.236 206.379 285.842 206.379ZM295.115 209.722V197.026H298.279L298.402 198.949C298.729 198.277 299.171 197.76 299.726 197.399C300.283 197.038 300.937 196.858 301.69 196.858C301.918 196.858 302.147 196.878 302.376 196.918C302.605 196.959 302.809 197.011 302.989 197.074L302.621 200.393C302.442 200.329 302.257 200.284 302.069 200.26C301.878 200.236 301.685 200.224 301.493 200.224C300.544 200.224 299.817 200.509 299.31 201.077C298.802 201.647 298.549 202.452 298.549 203.494V209.721H295.115V209.722Z" fill="white"/>
<g filter="url(#filter6_d_1_232)">
<path d="M337.936 327.45C337.936 334.599 332.627 340.759 325.438 340.759H222.912C215.721 340.759 209.47 334.599 209.47 327.45V76.349C209.47 69.1996 215.721 63.9728 222.912 63.9728H234.764C237.27 63.9728 238.196 63.6878 238.348 66.8462C238.427 68.4872 239.032 69.7621 240.002 70.8176C240.971 71.8536 242.305 72.7044 243.838 73.1819C244.878 73.506 246.036 73.7991 247.14 73.7991H301.319C302.423 73.7991 303.581 73.4385 304.621 73.115C306.155 72.6376 307.488 71.8407 308.457 70.8244C309.427 69.7878 310.033 68.5662 310.111 66.9259C310.262 63.7682 311.189 63.9728 313.695 63.9728H325.438C332.627 63.9728 337.936 69.1996 337.936 76.349V327.45ZM266.2 65.2005H282.258C282.94 65.2005 283.494 65.6205 283.494 66.2236C283.494 66.8266 282.94 67.2473 282.258 67.2473H266.2C265.518 67.2473 264.965 66.8266 264.965 66.2236C264.965 65.6205 265.518 65.2005 266.2 65.2005ZM290.7 65.553C290.7 66.0281 290.51 66.4838 290.172 66.8198C289.834 67.1558 289.375 67.3446 288.897 67.3446C288.419 67.3446 287.961 67.1558 287.623 66.8198C287.285 66.4838 287.095 66.0281 287.095 65.553C287.095 65.0778 287.285 64.6221 287.623 64.2862C287.961 63.9502 288.419 63.7614 288.897 63.7614C289.375 63.7614 289.834 63.9502 290.172 64.2862C290.51 64.6221 290.7 65.0778 290.7 65.553ZM345.76 122.932V77.156C345.76 65.5786 336.321 56.1933 324.678 56.1933H222.247C210.238 56.1933 200.412 65.9649 200.412 77.9076V94.6815C200.084 94.6815 199.77 94.8108 199.538 95.041C199.306 95.2712 199.176 95.5835 199.176 95.9092V104.508C199.176 104.834 199.306 105.146 199.538 105.377C199.77 105.607 200.084 105.737 200.412 105.737V115.972C200.084 115.973 199.77 116.102 199.538 116.333C199.306 116.563 199.176 116.876 199.176 117.201V135.626C199.176 135.952 199.307 136.264 199.538 136.494C199.77 136.725 200.084 136.854 200.412 136.854V142.996C200.084 142.996 199.77 143.126 199.538 143.356C199.307 143.586 199.176 143.898 199.176 144.224V162.649C199.176 162.975 199.306 163.288 199.538 163.518C199.77 163.749 200.084 163.878 200.412 163.878V328.393C200.412 340.373 210.268 350.176 222.316 350.176H324.678C336.272 350.176 345.76 340.742 345.76 329.213V156.916H346.171C346.333 156.916 346.494 156.884 346.644 156.823C346.794 156.761 346.93 156.671 347.045 156.556C347.16 156.442 347.251 156.307 347.313 156.158C347.375 156.009 347.407 155.849 347.407 155.688V124.161C347.407 123.482 346.854 122.932 346.171 122.932H345.76Z" fill="black"/>
</g>
<path d="M337.936 327.45C337.936 334.599 332.627 340.759 325.438 340.759H222.912C215.721 340.759 209.47 334.599 209.47 327.45V76.349C209.47 69.1996 215.721 63.9728 222.912 63.9728H234.764C237.27 63.9728 238.196 63.6878 238.348 66.8462C238.427 68.4872 239.032 69.7621 240.002 70.8176C240.971 71.8536 242.305 72.7044 243.838 73.1819C244.878 73.506 246.036 73.7991 247.14 73.7991H301.319C302.423 73.7991 303.581 73.4385 304.621 73.115C306.155 72.6376 307.488 71.8407 308.457 70.8244C309.427 69.7878 310.033 68.5662 310.111 66.9259C310.262 63.7682 311.189 63.9728 313.695 63.9728H325.438C332.627 63.9728 337.936 69.1996 337.936 76.349V327.45ZM266.2 65.2005H282.258C282.94 65.2005 283.494 65.6205 283.494 66.2236C283.494 66.8266 282.94 67.2473 282.258 67.2473H266.2C265.518 67.2473 264.965 66.8266 264.965 66.2236C264.965 65.6205 265.518 65.2005 266.2 65.2005ZM290.7 65.553C290.7 66.0281 290.51 66.4838 290.172 66.8198C289.834 67.1558 289.375 67.3446 288.897 67.3446C288.419 67.3446 287.961 67.1558 287.623 66.8198C287.285 66.4838 287.095 66.0281 287.095 65.553C287.095 65.0778 287.285 64.6221 287.623 64.2862C287.961 63.9502 288.419 63.7614 288.897 63.7614C289.375 63.7614 289.834 63.9502 290.172 64.2862C290.51 64.6221 290.7 65.0778 290.7 65.553ZM345.76 122.932V77.156C345.76 65.5786 336.321 56.1933 324.678 56.1933H222.247C210.238 56.1933 200.412 65.9649 200.412 77.9076V94.6815C200.084 94.6815 199.77 94.8108 199.538 95.041C199.306 95.2712 199.176 95.5835 199.176 95.9092V104.508C199.176 104.834 199.306 105.146 199.538 105.377C199.77 105.607 200.084 105.737 200.412 105.737V115.972C200.084 115.973 199.77 116.102 199.538 116.333C199.306 116.563 199.176 116.876 199.176 117.201V135.626C199.176 135.952 199.307 136.264 199.538 136.494C199.77 136.725 200.084 136.854 200.412 136.854V142.996C200.084 142.996 199.77 143.126 199.538 143.356C199.307 143.586 199.176 143.898 199.176 144.224V162.649C199.176 162.975 199.306 163.288 199.538 163.518C199.77 163.749 200.084 163.878 200.412 163.878V328.393C200.412 340.373 210.268 350.176 222.316 350.176H324.678C336.272 350.176 345.76 340.742 345.76 329.213V156.916H346.171C346.333 156.916 346.494 156.884 346.644 156.823C346.794 156.761 346.93 156.671 347.045 156.556C347.16 156.442 347.251 156.307 347.313 156.158C347.375 156.009 347.407 155.849 347.407 155.688V124.161C347.407 123.482 346.854 122.932 346.171 122.932H345.76Z" fill="#1D1D25"/>
<path fill-rule="evenodd" clip-rule="evenodd" d="M282.258 65.2005H266.2C265.518 65.2005 264.965 65.6219 264.965 66.2249C264.965 66.8273 265.518 67.248 266.201 67.248H282.258C282.941 67.248 283.495 66.8273 283.495 66.2249C283.495 65.6219 282.941 65.2005 282.258 65.2005ZM288.898 63.7621C288.42 63.7623 287.962 63.9512 287.624 64.2873C287.286 64.6234 287.096 65.0792 287.096 65.5543C287.097 66.0295 287.287 66.4851 287.625 66.821C287.963 67.1568 288.421 67.3454 288.899 67.3452C289.377 67.3451 289.836 67.1561 290.174 66.82C290.512 66.4839 290.701 66.0281 290.701 65.553C290.701 65.0778 290.511 64.6222 290.173 64.2863C289.835 63.9505 289.376 63.7619 288.898 63.7621Z" fill="black"/>
</g>
<defs>
<filter id="filter0_d_1_232" x="-12.6991" y="-6.35077" width="228.231" height="373.983" filterUnits="userSpaceOnUse" color-interpolation-filters="sRGB">
<feFlood flood-opacity="0" result="BackgroundImageFix"/>
<feColorMatrix in="SourceAlpha" type="matrix" values="0 0 0 0 0 0 0 0 0 0 0 0 0 0 0 0 0 0 127 0" result="hardAlpha"/>
<feOffset dy="20"/>
<feGaussianBlur stdDeviation="20"/>
<feColorMatrix type="matrix" values="0 0 0 0 0.421822 0 0 0 0 0.554338 0 0 0 0 0.89371 0 0 0 0.243444 0"/>
<feBlend mode="normal" in2="BackgroundImageFix" result="effect1_dropShadow_1_232"/>
<feBlend mode="normal" in="SourceGraphic" in2="effect1_dropShadow_1_232" result="shape"/>
</filter>
<filter id="filter1_d_1_232" x="196.945" y="84.6977" width="153.213" height="79.4653" filterUnits="userSpaceOnUse" color-interpolation-filters="sRGB">
<feFlood flood-opacity="0" result="BackgroundImageFix"/>
<feColorMatrix in="SourceAlpha" type="matrix" values="0 0 0 0 0 0 0 0 0 0 0 0 0 0 0 0 0 0 127 0" result="hardAlpha"/>
<feOffset dy="10"/>
<feGaussianBlur stdDeviation="10"/>
<feColorMatrix type="matrix" values="0 0 0 0 0.421822 0 0 0 0 0.554338 0 0 0 0 0.89371 0 0 0 0.243444 0"/>
<feBlend mode="normal" in2="BackgroundImageFix" result="effect1_dropShadow_1_232"/>
<feBlend mode="normal" in="SourceGraphic" in2="effect1_dropShadow_1_232" result="shape"/>
</filter>
<filter id="filter2_d_1_232" x="196.945" y="133.588" width="153.213" height="79.4653" filterUnits="userSpaceOnUse" color-interpolation-filters="sRGB">
<feFlood flood-opacity="0" result="BackgroundImageFix"/>
<feColorMatrix in="SourceAlpha" type="matrix" values="0 0 0 0 0 0 0 0 0 0 0 0 0 0 0 0 0 0 127 0" result="hardAlpha"/>
<feOffset dy="10"/>
<feGaussianBlur stdDeviation="10"/>
<feColorMatrix type="matrix" values="0 0 0 0 0.421822 0 0 0 0 0.554338 0 0 0 0 0.89371 0 0 0 0.243444 0"/>
<feBlend mode="normal" in2="BackgroundImageFix" result="effect1_dropShadow_1_232"/>
<feBlend mode="normal" in="SourceGraphic" in2="effect1_dropShadow_1_232" result="shape"/>
</filter>
<filter id="filter3_d_1_232" x="196.945" y="182.477" width="153.213" height="79.4653" filterUnits="userSpaceOnUse" color-interpolation-filters="sRGB">
<feFlood flood-opacity="0" result="BackgroundImageFix"/>
<feColorMatrix in="SourceAlpha" type="matrix" values="0 0 0 0 0 0 0 0 0 0 0 0 0 0 0 0 0 0 127 0" result="hardAlpha"/>
<feOffset dy="10"/>
<feGaussianBlur stdDeviation="10"/>
<feColorMatrix type="matrix" values="0 0 0 0 0.421822 0 0 0 0 0.554338 0 0 0 0 0.89371 0 0 0 0.243444 0"/>
<feBlend mode="normal" in2="BackgroundImageFix" result="effect1_dropShadow_1_232"/>
<feBlend mode="normal" in="SourceGraphic" in2="effect1_dropShadow_1_232" result="shape"/>
</filter>
<filter id="filter4_d_1_232" x="196.945" y="231.368" width="153.213" height="79.4653" filterUnits="userSpaceOnUse" color-interpolation-filters="sRGB">
<feFlood flood-opacity="0" result="BackgroundImageFix"/>
<feColorMatrix in="SourceAlpha" type="matrix" values="0 0 0 0 0 0 0 0 0 0 0 0 0 0 0 0 0 0 127 0" result="hardAlpha"/>
<feOffset dy="10"/>
<feGaussianBlur stdDeviation="10"/>
<feColorMatrix type="matrix" values="0 0 0 0 0.421822 0 0 0 0 0.554338 0 0 0 0 0.89371 0 0 0 0.243444 0"/>
<feBlend mode="normal" in2="BackgroundImageFix" result="effect1_dropShadow_1_232"/>
<feBlend mode="normal" in="SourceGraphic" in2="effect1_dropShadow_1_232" result="shape"/>
</filter>
<filter id="filter5_d_1_232" x="196.945" y="280.258" width="153.213" height="79.4653" filterUnits="userSpaceOnUse" color-interpolation-filters="sRGB">
<feFlood flood-opacity="0" result="BackgroundImageFix"/>
<feColorMatrix in="SourceAlpha" type="matrix" values="0 0 0 0 0 0 0 0 0 0 0 0 0 0 0 0 0 0 127 0" result="hardAlpha"/>
<feOffset dy="10"/>
<feGaussianBlur stdDeviation="10"/>
<feColorMatrix type="matrix" values="0 0 0 0 0.421822 0 0 0 0 0.554338 0 0 0 0 0.89371 0 0 0 0.243444 0"/>
<feBlend mode="normal" in2="BackgroundImageFix" result="effect1_dropShadow_1_232"/>
<feBlend mode="normal" in="SourceGraphic" in2="effect1_dropShadow_1_232" result="shape"/>
</filter>
<filter id="filter6_d_1_232" x="159.176" y="36.1933" width="228.231" height="373.983" filterUnits="userSpaceOnUse" color-interpolation-filters="sRGB">
<feFlood flood-opacity="0" result="BackgroundImageFix"/>
<feColorMatrix in="SourceAlpha" type="matrix" values="0 0 0 0 0 0 0 0 0 0 0 0 0 0 0 0 0 0 127 0" result="hardAlpha"/>
<feOffset dy="20"/>
<feGaussianBlur stdDeviation="20"/>
<feColorMatrix type="matrix" values="0 0 0 0 0.421822 0 0 0 0 0.554338 0 0 0 0 0.89371 0 0 0 0.243444 0"/>
<feBlend mode="normal" in2="BackgroundImageFix" result="effect1_dropShadow_1_232"/>
<feBlend mode="normal" in="SourceGraphic" in2="effect1_dropShadow_1_232" result="shape"/>
</filter>
<linearGradient id="paint0_linear_1_232" x1="33" y1="17" x2="171" y2="303" gradientUnits="userSpaceOnUse">
<stop stop-color="#FF8F70"/>
<stop offset="1" stop-color="#FF3D54"/>
</linearGradient>
<linearGradient id="paint1_linear_1_232" x1="5522.2" y1="59.4265" x2="17259.5" y2="24543.2" gradientUnits="userSpaceOnUse">
<stop stop-color="#FF8F71"/>
<stop offset="1" stop-color="#FF3E55"/>
</linearGradient>
<linearGradient id="paint2_linear_1_232" x1="209" y1="88" x2="338" y2="88" gradientUnits="userSpaceOnUse">
<stop stop-color="#FF8F70"/>
<stop offset="1" stop-color="#FF3D54"/>
</linearGradient>
<clipPath id="clip0_1_232">
<rect width="375" height="391" fill="white"/>
</clipPath>
</defs>
</svg>
