<svg width="552" height="580" viewBox="0 0 552 580" fill="none" xmlns="http://www.w3.org/2000/svg">
<path d="M230 25.5H70C57.8497 25.5 48 35.3497 48 47.5V426.5C48 438.65 57.8497 448.5 70 448.5H230C242.15 448.5 252 438.65 252 426.5V47.5C252 35.3497 242.15 25.5 230 25.5Z" fill="url(#paint0_linear_5_91)"/>
<path d="M105 248.06V222.782H114.316C116.05 222.782 117.548 223.049 118.812 223.582C120.076 224.117 121.051 224.876 121.737 225.862C122.423 226.846 122.767 228.003 122.767 229.332C122.767 230.542 122.501 231.605 121.972 232.519C121.442 233.433 120.666 234.179 119.732 234.673C121.032 235.171 122.044 235.96 122.766 237.04C123.488 238.12 123.849 239.396 123.849 240.868C123.849 242.339 123.464 243.608 122.694 244.677C121.924 245.745 120.84 246.576 119.444 247.169C118.048 247.762 116.399 248.059 114.497 248.059L105 248.06ZM110.2 227.16V232.964H113.739C114.919 232.964 115.827 232.721 116.465 232.234C117.103 231.747 117.422 231.029 117.422 230.08C117.422 229.13 117.102 228.407 116.465 227.908C115.827 227.41 114.918 227.161 113.739 227.161H110.199L110.2 227.16ZM110.2 243.68H114.244C115.592 243.68 116.634 243.395 117.368 242.826C118.102 242.256 118.469 241.437 118.469 240.369C118.469 239.301 118.102 238.482 117.368 237.913C116.633 237.343 115.592 237.058 114.244 237.058H110.2V243.68ZM127.063 248.06V221.5H132.119V248.06H127.063ZM145.335 248.593C143.915 248.593 142.603 248.344 141.399 247.846C140.224 247.367 139.156 246.659 138.257 245.763C137.36 244.863 136.654 243.791 136.181 242.612C135.687 241.402 135.441 240.084 135.441 238.66C135.441 237.236 135.693 235.925 136.199 234.726C136.691 233.548 137.408 232.478 138.311 231.576C139.219 230.67 140.3 229.956 141.489 229.475C142.705 228.976 144.035 228.727 145.479 228.727C146.899 228.727 148.212 228.977 149.415 229.475C150.59 229.954 151.658 230.662 152.557 231.558C153.451 232.453 154.157 233.519 154.633 234.691C155.127 235.889 155.373 237.201 155.373 238.625C155.373 240.049 155.121 241.366 154.615 242.576C154.127 243.761 153.409 244.838 152.503 245.745C151.595 246.65 150.514 247.364 149.325 247.845C148.109 248.344 146.779 248.593 145.335 248.593ZM145.407 244.107C146.322 244.107 147.14 243.87 147.863 243.395C148.585 242.921 149.156 242.274 149.578 241.455C149.999 240.636 150.21 239.705 150.21 238.66C150.21 237.616 149.999 236.684 149.578 235.865C149.156 235.047 148.585 234.4 147.863 233.925C147.14 233.45 146.322 233.213 145.407 233.213C144.492 233.213 143.674 233.45 142.952 233.925C142.229 234.4 141.658 235.047 141.236 235.865C140.816 236.685 140.604 237.615 140.604 238.66C140.604 239.705 140.815 240.636 141.236 241.455C141.658 242.274 142.229 242.921 142.952 243.395C143.674 243.87 144.492 244.107 145.407 244.107ZM166.531 247.525C165.368 247.533 164.216 247.291 163.155 246.813C162.121 246.348 161.193 245.675 160.429 244.837C159.646 243.975 159.034 242.972 158.623 241.882C158.19 240.755 157.973 239.538 157.973 238.233C157.973 236.88 158.196 235.628 158.641 234.477C159.064 233.361 159.702 232.339 160.519 231.469C161.317 230.62 162.274 229.937 163.336 229.457C164.406 228.971 165.568 228.727 166.82 228.727C168.048 228.727 169.155 228.971 170.142 229.457C171.128 229.942 171.973 230.671 172.598 231.575L172.706 229.261H177.364V245.816C177.364 247.264 177.13 248.581 176.66 249.768C176.215 250.918 175.532 251.962 174.656 252.83C173.774 253.694 172.723 254.367 171.569 254.806C170.377 255.269 169.059 255.5 167.615 255.5C166.195 255.5 164.918 255.28 163.787 254.841C162.692 254.425 161.687 253.802 160.826 253.008C159.99 252.234 159.315 251.302 158.84 250.266L163.679 249.092C164.095 249.764 164.672 250.32 165.358 250.712C166.044 251.103 166.82 251.299 167.687 251.299C168.626 251.299 169.438 251.091 170.124 250.676C170.813 250.257 171.37 249.652 171.731 248.931C172.116 248.184 172.309 247.311 172.309 246.315V244.784C171.655 245.641 170.807 246.33 169.835 246.795C168.836 247.282 167.735 247.525 166.531 247.525ZM167.759 243.11C168.649 243.11 169.439 242.89 170.124 242.452C170.814 242.008 171.38 241.396 171.767 240.672C172.177 239.924 172.381 239.076 172.381 238.126C172.381 237.176 172.177 236.328 171.767 235.581C171.38 234.857 170.814 234.245 170.124 233.801C169.438 233.361 168.65 233.141 167.759 233.141C166.869 233.141 166.08 233.361 165.394 233.801C164.704 234.245 164.138 234.857 163.751 235.581C163.341 236.328 163.137 237.177 163.137 238.126C163.137 239.076 163.342 239.924 163.751 240.672C164.161 241.419 164.708 242.012 165.394 242.452C166.08 242.891 166.868 243.11 167.759 243.11ZM181.409 248.06V229.26H186.067L186.247 232.108C186.729 231.112 187.379 230.346 188.197 229.812C189.016 229.278 189.979 229.011 191.087 229.011C191.423 229.011 191.76 229.041 192.097 229.1C192.434 229.16 192.735 229.237 193 229.331L192.458 234.245C192.195 234.15 191.923 234.085 191.646 234.049C191.364 234.013 191.081 233.995 190.797 233.995C189.401 233.995 188.33 234.417 187.584 235.259C186.837 236.102 186.464 237.294 186.464 238.837V248.058H181.409V248.06Z" fill="white"/>
<g filter="url(#filter0_d_5_91)">
<path d="M244.442 422.394C244.442 432.981 236.627 442.102 226.044 442.102H75.126C64.542 442.102 55.34 432.981 55.34 422.394V50.559C55.34 39.972 64.542 32.232 75.126 32.232H92.573C96.262 32.232 97.624 31.81 97.848 36.487C97.964 38.917 98.855 40.805 100.283 42.368C101.709 43.902 103.673 45.162 105.929 45.869C107.46 46.349 109.165 46.783 110.79 46.783H190.541C192.167 46.783 193.871 46.249 195.402 45.77C197.66 45.063 199.622 43.883 201.049 42.378C202.477 40.843 203.368 39.034 203.483 36.605C203.706 31.929 205.07 32.232 208.759 32.232H226.044C236.627 32.232 244.442 39.972 244.442 50.559V422.394ZM138.847 34.05H162.484C163.488 34.05 164.303 34.672 164.303 35.565C164.303 36.458 163.488 37.081 162.484 37.081H138.847C137.842 37.081 137.029 36.458 137.029 35.565C137.029 34.672 137.842 34.05 138.847 34.05ZM174.91 34.572C174.91 35.2757 174.63 35.9505 174.133 36.448C173.635 36.9455 172.961 37.225 172.257 37.225C171.553 37.225 170.879 36.9455 170.381 36.448C169.884 35.9505 169.604 35.2757 169.604 34.572C169.604 33.8684 169.884 33.1936 170.381 32.6961C170.879 32.1985 171.553 31.919 172.257 31.919C172.961 31.919 173.635 32.1985 174.133 32.6961C174.63 33.1936 174.91 33.8684 174.91 34.572ZM255.958 119.54V51.754C255.958 34.61 242.065 20.712 224.926 20.712H74.148C56.471 20.712 42.006 35.182 42.006 52.867V77.706C41.5238 77.706 41.0612 77.8975 40.7201 78.2385C40.379 78.5794 40.1873 79.0418 40.187 79.524V92.257C40.187 92.7396 40.3786 93.2023 40.7197 93.5436C41.0608 93.8849 41.5235 94.0768 42.006 94.077V109.234C41.5235 109.234 41.0608 109.426 40.7197 109.767C40.3786 110.109 40.187 110.572 40.187 111.054V138.338C40.1875 138.82 40.3794 139.282 40.7204 139.623C41.0615 139.964 41.5238 140.156 42.006 140.156V149.251C41.5238 149.251 41.0615 149.443 40.7204 149.784C40.3794 150.125 40.1875 150.587 40.187 151.069V178.354C40.187 178.837 40.3786 179.299 40.7197 179.641C41.0608 179.982 41.5235 180.174 42.006 180.174V423.79C42.006 441.53 56.515 456.047 74.249 456.047H224.926C241.993 456.047 255.958 442.077 255.958 425.004V169.864H256.563C256.802 169.864 257.039 169.817 257.259 169.726C257.48 169.635 257.681 169.501 257.85 169.332C258.019 169.163 258.153 168.962 258.244 168.741C258.336 168.521 258.383 168.284 258.383 168.045V121.36C258.383 120.355 257.569 119.54 256.563 119.54H255.958Z" fill="black"/>
</g>
<path d="M244.442 422.394C244.442 432.981 236.627 442.102 226.044 442.102H75.126C64.542 442.102 55.34 432.981 55.34 422.394V50.559C55.34 39.972 64.542 32.232 75.126 32.232H92.573C96.262 32.232 97.624 31.81 97.848 36.487C97.964 38.917 98.855 40.805 100.283 42.368C101.709 43.902 103.673 45.162 105.929 45.869C107.46 46.349 109.165 46.783 110.79 46.783H190.541C192.167 46.783 193.871 46.249 195.402 45.77C197.66 45.063 199.622 43.883 201.049 42.378C202.477 40.843 203.368 39.034 203.483 36.605C203.706 31.929 205.07 32.232 208.759 32.232H226.044C236.627 32.232 244.442 39.972 244.442 50.559V422.394ZM138.847 34.05H162.484C163.488 34.05 164.303 34.672 164.303 35.565C164.303 36.458 163.488 37.081 162.484 37.081H138.847C137.842 37.081 137.029 36.458 137.029 35.565C137.029 34.672 137.842 34.05 138.847 34.05ZM174.91 34.572C174.91 35.2757 174.63 35.9505 174.133 36.448C173.635 36.9455 172.961 37.225 172.257 37.225C171.553 37.225 170.879 36.9455 170.381 36.448C169.884 35.9505 169.604 35.2757 169.604 34.572C169.604 33.8684 169.884 33.1936 170.381 32.6961C170.879 32.1985 171.553 31.919 172.257 31.919C172.961 31.919 173.635 32.1985 174.133 32.6961C174.63 33.1936 174.91 33.8684 174.91 34.572ZM255.958 119.54V51.754C255.958 34.61 242.065 20.712 224.926 20.712H74.148C56.471 20.712 42.006 35.182 42.006 52.867V77.706C41.5238 77.706 41.0612 77.8975 40.7201 78.2385C40.379 78.5794 40.1873 79.0418 40.187 79.524V92.257C40.187 92.7396 40.3786 93.2023 40.7197 93.5436C41.0608 93.8849 41.5235 94.0768 42.006 94.077V109.234C41.5235 109.234 41.0608 109.426 40.7197 109.767C40.3786 110.109 40.187 110.572 40.187 111.054V138.338C40.1875 138.82 40.3794 139.282 40.7204 139.623C41.0615 139.964 41.5238 140.156 42.006 140.156V149.251C41.5238 149.251 41.0615 149.443 40.7204 149.784C40.3794 150.125 40.1875 150.587 40.187 151.069V178.354C40.187 178.837 40.3786 179.299 40.7197 179.641C41.0608 179.982 41.5235 180.174 42.006 180.174V423.79C42.006 441.53 56.515 456.047 74.249 456.047H224.926C241.993 456.047 255.958 442.077 255.958 425.004V169.864H256.563C256.802 169.864 257.039 169.817 257.259 169.726C257.48 169.635 257.681 169.501 257.85 169.332C258.019 169.163 258.153 168.962 258.244 168.741C258.336 168.521 258.383 168.284 258.383 168.045V121.36C258.383 120.355 257.569 119.54 256.563 119.54H255.958Z" fill="#1D1D25"/>
<path fill-rule="evenodd" clip-rule="evenodd" d="M162.484 34.05H138.847C137.842 34.05 137.028 34.674 137.028 35.567C137.028 36.459 137.842 37.082 138.848 37.082H162.484C163.489 37.082 164.304 36.459 164.304 35.567C164.304 34.674 163.489 34.05 162.484 34.05ZM172.258 31.92C171.554 31.9203 170.88 32.2001 170.382 32.6978C169.885 33.1955 169.606 33.8704 169.606 34.574C169.606 35.2777 169.886 35.9524 170.384 36.4497C170.882 36.9471 171.556 37.2263 172.26 37.226C172.964 37.2258 173.638 36.946 174.136 36.4483C174.633 35.9506 174.912 35.2757 174.912 34.572C174.912 33.8684 174.632 33.1937 174.134 32.6964C173.637 32.199 172.962 31.9198 172.258 31.92Z" fill="black"/>
<path d="M483 88.5H323C310.85 88.5 301 98.3497 301 110.5V489.5C301 501.65 310.85 511.5 323 511.5H483C495.15 511.5 505 501.65 505 489.5V110.5C505 98.3497 495.15 88.5 483 88.5Z" fill="url(#paint1_linear_5_91)"/>
<path d="M475.335 94.5H330C317.85 94.5 308 104.35 308 116.5V486.821C308 498.971 317.85 508.821 330 508.821H475.335C487.485 508.821 497.335 498.971 497.335 486.821V116.5C497.335 104.35 487.485 94.5 475.335 94.5Z" fill="white"/>
<path d="M475.335 94.5H330C317.85 94.5 308 104.35 308 116.5V145.769C308 157.919 317.85 167.769 330 167.769H475.335C487.485 167.769 497.335 157.919 497.335 145.769V116.5C497.335 104.35 487.485 94.5 475.335 94.5Z" fill="url(#paint2_linear_5_91)"/>
<g filter="url(#filter1_d_5_91)">
<path d="M481.992 140.73H323.343C321.134 140.73 319.343 142.521 319.343 144.73V195.171C319.343 197.38 321.134 199.171 323.343 199.171H481.992C484.201 199.171 485.992 197.38 485.992 195.171V144.73C485.992 142.521 484.201 140.73 481.992 140.73Z" fill="black"/>
</g>
<path d="M481.992 140.73H323.343C321.134 140.73 319.343 142.521 319.343 144.73V195.171C319.343 197.38 321.134 199.171 323.343 199.171H481.992C484.201 199.171 485.992 197.38 485.992 195.171V144.73C485.992 142.521 484.201 140.73 481.992 140.73Z" fill="white"/>
<g filter="url(#filter2_d_5_91)">
<path d="M481.992 213.127H323.343C321.134 213.127 319.343 214.918 319.343 217.127V267.568C319.343 269.777 321.134 271.568 323.343 271.568H481.992C484.201 271.568 485.992 269.777 485.992 267.568V217.127C485.992 214.918 484.201 213.127 481.992 213.127Z" fill="black"/>
</g>
<path d="M481.992 213.127H323.343C321.134 213.127 319.343 214.918 319.343 217.127V267.568C319.343 269.777 321.134 271.568 323.343 271.568H481.992C484.201 271.568 485.992 269.777 485.992 267.568V217.127C485.992 214.918 484.201 213.127 481.992 213.127Z" fill="white"/>
<g filter="url(#filter3_d_5_91)">
<path d="M481.992 285.524H323.343C321.134 285.524 319.343 287.315 319.343 289.524V339.965C319.343 342.174 321.134 343.965 323.343 343.965H481.992C484.201 343.965 485.992 342.174 485.992 339.965V289.524C485.992 287.315 484.201 285.524 481.992 285.524Z" fill="black"/>
</g>
<path d="M481.992 285.524H323.343C321.134 285.524 319.343 287.315 319.343 289.524V339.965C319.343 342.174 321.134 343.965 323.343 343.965H481.992C484.201 343.965 485.992 342.174 485.992 339.965V289.524C485.992 287.315 484.201 285.524 481.992 285.524Z" fill="white"/>
<g filter="url(#filter4_d_5_91)">
<path d="M481.992 357.922H323.343C321.134 357.922 319.343 359.713 319.343 361.922V412.363C319.343 414.572 321.134 416.363 323.343 416.363H481.992C484.201 416.363 485.992 414.572 485.992 412.363V361.922C485.992 359.713 484.201 357.922 481.992 357.922Z" fill="black"/>
</g>
<path d="M481.992 357.922H323.343C321.134 357.922 319.343 359.713 319.343 361.922V412.363C319.343 414.572 321.134 416.363 323.343 416.363H481.992C484.201 416.363 485.992 414.572 485.992 412.363V361.922C485.992 359.713 484.201 357.922 481.992 357.922Z" fill="white"/>
<g filter="url(#filter5_d_5_91)">
<path d="M481.992 430.319H323.343C321.134 430.319 319.343 432.11 319.343 434.319V484.76C319.343 486.969 321.134 488.76 323.343 488.76H481.992C484.201 488.76 485.992 486.969 485.992 484.76V434.319C485.992 432.11 484.201 430.319 481.992 430.319Z" fill="black"/>
</g>
<path d="M481.992 430.319H323.343C321.134 430.319 319.343 432.11 319.343 434.319V484.76C319.343 486.969 321.134 488.76 323.343 488.76H481.992C484.201 488.76 485.992 486.969 485.992 484.76V434.319C485.992 432.11 484.201 430.319 481.992 430.319Z" fill="white"/>
<path d="M358 311.06V285.782H367.316C369.05 285.782 370.548 286.049 371.812 286.582C373.076 287.117 374.051 287.876 374.737 288.862C375.423 289.846 375.767 291.003 375.767 292.332C375.767 293.542 375.501 294.605 374.972 295.519C374.442 296.433 373.666 297.179 372.732 297.673C374.032 298.171 375.044 298.96 375.766 300.04C376.488 301.12 376.849 302.396 376.849 303.868C376.849 305.339 376.464 306.608 375.694 307.677C374.924 308.745 373.84 309.576 372.444 310.169C371.048 310.762 369.399 311.059 367.497 311.059L358 311.06ZM363.2 290.16V295.964H366.739C367.919 295.964 368.827 295.721 369.465 295.234C370.103 294.747 370.422 294.029 370.422 293.08C370.422 292.13 370.102 291.407 369.465 290.908C368.827 290.41 367.918 290.161 366.739 290.161H363.199L363.2 290.16ZM363.2 306.68H367.244C368.592 306.68 369.634 306.395 370.368 305.826C371.102 305.256 371.469 304.437 371.469 303.369C371.469 302.301 371.102 301.482 370.368 300.913C369.633 300.343 368.592 300.058 367.244 300.058H363.2V306.68ZM380.063 311.06V284.5H385.119V311.06H380.063ZM398.335 311.593C396.915 311.593 395.603 311.344 394.399 310.846C393.224 310.367 392.156 309.659 391.257 308.763C390.36 307.863 389.654 306.791 389.181 305.612C388.687 304.402 388.441 303.084 388.441 301.66C388.441 300.236 388.693 298.925 389.199 297.726C389.691 296.548 390.408 295.478 391.311 294.576C392.219 293.67 393.3 292.956 394.489 292.475C395.705 291.976 397.035 291.727 398.479 291.727C399.899 291.727 401.212 291.977 402.415 292.475C403.59 292.954 404.658 293.662 405.557 294.558C406.451 295.453 407.157 296.519 407.633 297.691C408.127 298.889 408.373 300.201 408.373 301.625C408.373 303.049 408.121 304.366 407.615 305.576C407.127 306.761 406.409 307.838 405.503 308.745C404.595 309.65 403.514 310.364 402.325 310.845C401.109 311.344 399.779 311.593 398.335 311.593ZM398.407 307.107C399.322 307.107 400.14 306.87 400.863 306.395C401.585 305.921 402.156 305.274 402.578 304.455C402.999 303.636 403.21 302.705 403.21 301.66C403.21 300.616 402.999 299.684 402.578 298.865C402.156 298.047 401.585 297.4 400.863 296.925C400.14 296.45 399.322 296.213 398.407 296.213C397.492 296.213 396.674 296.45 395.952 296.925C395.229 297.4 394.658 298.047 394.236 298.865C393.816 299.685 393.604 300.615 393.604 301.66C393.604 302.705 393.815 303.636 394.236 304.455C394.658 305.274 395.229 305.921 395.952 306.395C396.674 306.87 397.492 307.107 398.407 307.107ZM419.531 310.525C418.368 310.533 417.216 310.291 416.155 309.813C415.121 309.348 414.193 308.675 413.429 307.837C412.646 306.975 412.034 305.972 411.623 304.882C411.19 303.755 410.973 302.538 410.973 301.233C410.973 299.88 411.196 298.628 411.641 297.477C412.064 296.361 412.702 295.339 413.519 294.469C414.317 293.62 415.274 292.937 416.336 292.457C417.406 291.971 418.568 291.727 419.82 291.727C421.048 291.727 422.155 291.971 423.142 292.457C424.128 292.942 424.973 293.671 425.598 294.575L425.706 292.261H430.364V308.816C430.364 310.264 430.13 311.581 429.66 312.768C429.215 313.918 428.532 314.962 427.656 315.83C426.774 316.694 425.723 317.367 424.569 317.806C423.377 318.269 422.059 318.5 420.615 318.5C419.195 318.5 417.918 318.28 416.787 317.841C415.692 317.425 414.687 316.802 413.826 316.008C412.99 315.234 412.315 314.302 411.84 313.266L416.679 312.092C417.095 312.764 417.672 313.32 418.358 313.712C419.044 314.103 419.82 314.299 420.687 314.299C421.626 314.299 422.438 314.091 423.124 313.676C423.813 313.257 424.37 312.652 424.731 311.931C425.116 311.184 425.309 310.311 425.309 309.315V307.784C424.655 308.641 423.807 309.33 422.835 309.795C421.836 310.282 420.735 310.525 419.531 310.525ZM420.759 306.11C421.649 306.11 422.439 305.89 423.124 305.452C423.814 305.008 424.38 304.396 424.767 303.672C425.177 302.924 425.381 302.076 425.381 301.126C425.381 300.176 425.177 299.328 424.767 298.581C424.38 297.857 423.814 297.245 423.124 296.801C422.438 296.361 421.65 296.141 420.759 296.141C419.869 296.141 419.08 296.361 418.394 296.801C417.704 297.245 417.138 297.857 416.751 298.581C416.341 299.328 416.137 300.177 416.137 301.126C416.137 302.076 416.342 302.924 416.751 303.672C417.161 304.419 417.708 305.012 418.394 305.452C419.08 305.891 419.868 306.11 420.759 306.11ZM434.409 311.06V292.26H439.067L439.247 295.108C439.729 294.112 440.379 293.346 441.197 292.812C442.016 292.278 442.979 292.011 444.087 292.011C444.423 292.011 444.76 292.041 445.097 292.1C445.434 292.16 445.735 292.237 446 292.331L445.458 297.245C445.195 297.15 444.923 297.085 444.646 297.049C444.364 297.013 444.081 296.995 443.797 296.995C442.401 296.995 441.33 297.417 440.584 298.259C439.837 299.102 439.464 300.294 439.464 301.837V311.058H434.409V311.06Z" fill="white"/>
<g filter="url(#filter6_d_5_91)">
<path d="M497.442 485.394C497.442 495.981 489.627 505.102 479.044 505.102H328.126C317.542 505.102 308.34 495.981 308.34 485.394V113.559C308.34 102.972 317.542 95.232 328.126 95.232H345.573C349.262 95.232 350.624 94.81 350.848 99.487C350.964 101.917 351.855 103.805 353.283 105.368C354.709 106.902 356.673 108.162 358.929 108.869C360.46 109.349 362.165 109.783 363.79 109.783H443.541C445.167 109.783 446.871 109.249 448.402 108.77C450.66 108.063 452.622 106.883 454.049 105.378C455.477 103.843 456.368 102.034 456.483 99.605C456.706 94.929 458.07 95.232 461.759 95.232H479.044C489.627 95.232 497.442 102.972 497.442 113.559V485.394ZM391.847 97.05H415.484C416.488 97.05 417.303 97.672 417.303 98.565C417.303 99.458 416.488 100.081 415.484 100.081H391.847C390.842 100.081 390.029 99.458 390.029 98.565C390.029 97.672 390.842 97.05 391.847 97.05ZM427.91 97.572C427.91 98.2757 427.63 98.9505 427.133 99.448C426.635 99.9455 425.961 100.225 425.257 100.225C424.553 100.225 423.879 99.9455 423.381 99.448C422.884 98.9505 422.604 98.2757 422.604 97.572C422.604 96.8684 422.884 96.1936 423.381 95.6961C423.879 95.1985 424.553 94.919 425.257 94.919C425.961 94.919 426.635 95.1985 427.133 95.6961C427.63 96.1936 427.91 96.8684 427.91 97.572ZM508.958 182.54V114.754C508.958 97.61 495.065 83.712 477.926 83.712H327.148C309.471 83.712 295.006 98.182 295.006 115.867V140.706C294.524 140.706 294.061 140.898 293.72 141.238C293.379 141.579 293.187 142.042 293.187 142.524V155.257C293.187 155.74 293.379 156.202 293.72 156.544C294.061 156.885 294.523 157.077 295.006 157.077V172.234C294.523 172.234 294.061 172.426 293.72 172.767C293.379 173.109 293.187 173.572 293.187 174.054V201.338C293.188 201.82 293.379 202.282 293.72 202.623C294.061 202.964 294.524 203.156 295.006 203.156V212.251C294.524 212.251 294.061 212.443 293.72 212.784C293.379 213.125 293.188 213.587 293.187 214.069V241.354C293.187 241.837 293.379 242.299 293.72 242.641C294.061 242.982 294.523 243.174 295.006 243.174V486.79C295.006 504.53 309.515 519.047 327.249 519.047H477.926C494.993 519.047 508.958 505.077 508.958 488.004V232.864H509.563C509.802 232.864 510.039 232.817 510.259 232.726C510.48 232.635 510.681 232.501 510.85 232.332C511.019 232.163 511.153 231.962 511.244 231.741C511.336 231.521 511.383 231.284 511.383 231.045V184.36C511.383 183.355 510.569 182.54 509.563 182.54H508.958Z" fill="black"/>
</g>
<path d="M497.442 485.394C497.442 495.981 489.627 505.102 479.044 505.102H328.126C317.542 505.102 308.34 495.981 308.34 485.394V113.559C308.34 102.972 317.542 95.232 328.126 95.232H345.573C349.262 95.232 350.624 94.81 350.848 99.487C350.964 101.917 351.855 103.805 353.283 105.368C354.709 106.902 356.673 108.162 358.929 108.869C360.46 109.349 362.165 109.783 363.79 109.783H443.541C445.167 109.783 446.871 109.249 448.402 108.77C450.66 108.063 452.622 106.883 454.049 105.378C455.477 103.843 456.368 102.034 456.483 99.605C456.706 94.929 458.07 95.232 461.759 95.232H479.044C489.627 95.232 497.442 102.972 497.442 113.559V485.394ZM391.847 97.05H415.484C416.488 97.05 417.303 97.672 417.303 98.565C417.303 99.458 416.488 100.081 415.484 100.081H391.847C390.842 100.081 390.029 99.458 390.029 98.565C390.029 97.672 390.842 97.05 391.847 97.05ZM427.91 97.572C427.91 98.2757 427.63 98.9505 427.133 99.448C426.635 99.9455 425.961 100.225 425.257 100.225C424.553 100.225 423.879 99.9455 423.381 99.448C422.884 98.9505 422.604 98.2757 422.604 97.572C422.604 96.8684 422.884 96.1936 423.381 95.6961C423.879 95.1985 424.553 94.919 425.257 94.919C425.961 94.919 426.635 95.1985 427.133 95.6961C427.63 96.1936 427.91 96.8684 427.91 97.572ZM508.958 182.54V114.754C508.958 97.61 495.065 83.712 477.926 83.712H327.148C309.471 83.712 295.006 98.182 295.006 115.867V140.706C294.524 140.706 294.061 140.898 293.72 141.238C293.379 141.579 293.187 142.042 293.187 142.524V155.257C293.187 155.74 293.379 156.202 293.72 156.544C294.061 156.885 294.523 157.077 295.006 157.077V172.234C294.523 172.234 294.061 172.426 293.72 172.767C293.379 173.109 293.187 173.572 293.187 174.054V201.338C293.188 201.82 293.379 202.282 293.72 202.623C294.061 202.964 294.524 203.156 295.006 203.156V212.251C294.524 212.251 294.061 212.443 293.72 212.784C293.379 213.125 293.188 213.587 293.187 214.069V241.354C293.187 241.837 293.379 242.299 293.72 242.641C294.061 242.982 294.523 243.174 295.006 243.174V486.79C295.006 504.53 309.515 519.047 327.249 519.047H477.926C494.993 519.047 508.958 505.077 508.958 488.004V232.864H509.563C509.802 232.864 510.039 232.817 510.259 232.726C510.48 232.635 510.681 232.501 510.85 232.332C511.019 232.163 511.153 231.962 511.244 231.741C511.336 231.521 511.383 231.284 511.383 231.045V184.36C511.383 183.355 510.569 182.54 509.563 182.54H508.958Z" fill="#1D1D25"/>
<path fill-rule="evenodd" clip-rule="evenodd" d="M415.484 97.05H391.847C390.842 97.05 390.028 97.674 390.028 98.567C390.028 99.459 390.842 100.082 391.848 100.082H415.484C416.489 100.082 417.304 99.459 417.304 98.567C417.304 97.674 416.489 97.05 415.484 97.05ZM425.258 94.92C424.554 94.9203 423.88 95.2001 423.382 95.6978C422.885 96.1955 422.606 96.8704 422.606 97.574C422.606 98.2777 422.886 98.9524 423.384 99.4497C423.882 99.9471 424.556 100.226 425.26 100.226C425.964 100.226 426.638 99.946 427.136 99.4483C427.633 98.9506 427.912 98.2757 427.912 97.572C427.912 96.8684 427.632 96.1937 427.134 95.6964C426.637 95.199 425.962 94.9198 425.258 94.92Z" fill="black"/>
<defs>
<filter id="filter0_d_5_91" x="0.187012" y="0.712036" width="298.196" height="515.335" filterUnits="userSpaceOnUse" color-interpolation-filters="sRGB">
<feFlood flood-opacity="0" result="BackgroundImageFix"/>
<feColorMatrix in="SourceAlpha" type="matrix" values="0 0 0 0 0 0 0 0 0 0 0 0 0 0 0 0 0 0 127 0" result="hardAlpha"/>
<feOffset dy="20"/>
<feGaussianBlur stdDeviation="20"/>
<feColorMatrix type="matrix" values="0 0 0 0 0.421822 0 0 0 0 0.554338 0 0 0 0 0.89371 0 0 0 0.243444 0"/>
<feBlend mode="normal" in2="BackgroundImageFix" result="effect1_dropShadow_5_91"/>
<feBlend mode="normal" in="SourceGraphic" in2="effect1_dropShadow_5_91" result="shape"/>
</filter>
<filter id="filter1_d_5_91" x="299.343" y="130.73" width="206.649" height="98.441" filterUnits="userSpaceOnUse" color-interpolation-filters="sRGB">
<feFlood flood-opacity="0" result="BackgroundImageFix"/>
<feColorMatrix in="SourceAlpha" type="matrix" values="0 0 0 0 0 0 0 0 0 0 0 0 0 0 0 0 0 0 127 0" result="hardAlpha"/>
<feOffset dy="10"/>
<feGaussianBlur stdDeviation="10"/>
<feColorMatrix type="matrix" values="0 0 0 0 0.421822 0 0 0 0 0.554338 0 0 0 0 0.89371 0 0 0 0.243444 0"/>
<feBlend mode="normal" in2="BackgroundImageFix" result="effect1_dropShadow_5_91"/>
<feBlend mode="normal" in="SourceGraphic" in2="effect1_dropShadow_5_91" result="shape"/>
</filter>
<filter id="filter2_d_5_91" x="299.343" y="203.127" width="206.649" height="98.441" filterUnits="userSpaceOnUse" color-interpolation-filters="sRGB">
<feFlood flood-opacity="0" result="BackgroundImageFix"/>
<feColorMatrix in="SourceAlpha" type="matrix" values="0 0 0 0 0 0 0 0 0 0 0 0 0 0 0 0 0 0 127 0" result="hardAlpha"/>
<feOffset dy="10"/>
<feGaussianBlur stdDeviation="10"/>
<feColorMatrix type="matrix" values="0 0 0 0 0.421822 0 0 0 0 0.554338 0 0 0 0 0.89371 0 0 0 0.243444 0"/>
<feBlend mode="normal" in2="BackgroundImageFix" result="effect1_dropShadow_5_91"/>
<feBlend mode="normal" in="SourceGraphic" in2="effect1_dropShadow_5_91" result="shape"/>
</filter>
<filter id="filter3_d_5_91" x="299.343" y="275.524" width="206.649" height="98.441" filterUnits="userSpaceOnUse" color-interpolation-filters="sRGB">
<feFlood flood-opacity="0" result="BackgroundImageFix"/>
<feColorMatrix in="SourceAlpha" type="matrix" values="0 0 0 0 0 0 0 0 0 0 0 0 0 0 0 0 0 0 127 0" result="hardAlpha"/>
<feOffset dy="10"/>
<feGaussianBlur stdDeviation="10"/>
<feColorMatrix type="matrix" values="0 0 0 0 0.421822 0 0 0 0 0.554338 0 0 0 0 0.89371 0 0 0 0.243444 0"/>
<feBlend mode="normal" in2="BackgroundImageFix" result="effect1_dropShadow_5_91"/>
<feBlend mode="normal" in="SourceGraphic" in2="effect1_dropShadow_5_91" result="shape"/>
</filter>
<filter id="filter4_d_5_91" x="299.343" y="347.922" width="206.649" height="98.441" filterUnits="userSpaceOnUse" color-interpolation-filters="sRGB">
<feFlood flood-opacity="0" result="BackgroundImageFix"/>
<feColorMatrix in="SourceAlpha" type="matrix" values="0 0 0 0 0 0 0 0 0 0 0 0 0 0 0 0 0 0 127 0" result="hardAlpha"/>
<feOffset dy="10"/>
<feGaussianBlur stdDeviation="10"/>
<feColorMatrix type="matrix" values="0 0 0 0 0.421822 0 0 0 0 0.554338 0 0 0 0 0.89371 0 0 0 0.243444 0"/>
<feBlend mode="normal" in2="BackgroundImageFix" result="effect1_dropShadow_5_91"/>
<feBlend mode="normal" in="SourceGraphic" in2="effect1_dropShadow_5_91" result="shape"/>
</filter>
<filter id="filter5_d_5_91" x="299.343" y="420.319" width="206.649" height="98.441" filterUnits="userSpaceOnUse" color-interpolation-filters="sRGB">
<feFlood flood-opacity="0" result="BackgroundImageFix"/>
<feColorMatrix in="SourceAlpha" type="matrix" values="0 0 0 0 0 0 0 0 0 0 0 0 0 0 0 0 0 0 127 0" result="hardAlpha"/>
<feOffset dy="10"/>
<feGaussianBlur stdDeviation="10"/>
<feColorMatrix type="matrix" values="0 0 0 0 0.421822 0 0 0 0 0.554338 0 0 0 0 0.89371 0 0 0 0.243444 0"/>
<feBlend mode="normal" in2="BackgroundImageFix" result="effect1_dropShadow_5_91"/>
<feBlend mode="normal" in="SourceGraphic" in2="effect1_dropShadow_5_91" result="shape"/>
</filter>
<filter id="filter6_d_5_91" x="253.187" y="63.712" width="298.196" height="515.335" filterUnits="userSpaceOnUse" color-interpolation-filters="sRGB">
<feFlood flood-opacity="0" result="BackgroundImageFix"/>
<feColorMatrix in="SourceAlpha" type="matrix" values="0 0 0 0 0 0 0 0 0 0 0 0 0 0 0 0 0 0 127 0" result="hardAlpha"/>
<feOffset dy="20"/>
<feGaussianBlur stdDeviation="20"/>
<feColorMatrix type="matrix" values="0 0 0 0 0.421822 0 0 0 0 0.554338 0 0 0 0 0.89371 0 0 0 0.243444 0"/>
<feBlend mode="normal" in2="BackgroundImageFix" result="effect1_dropShadow_5_91"/>
<feBlend mode="normal" in="SourceGraphic" in2="effect1_dropShadow_5_91" result="shape"/>
</filter>
<linearGradient id="paint0_linear_5_91" x1="150" y1="25.5" x2="150" y2="448.5" gradientUnits="userSpaceOnUse">
<stop stop-color="#FF8F70"/>
<stop offset="1" stop-color="#FF3D54"/>
</linearGradient>
<linearGradient id="paint1_linear_5_91" x1="403" y1="88.5" x2="403" y2="511.5" gradientUnits="userSpaceOnUse">
<stop stop-color="#FF8F70"/>
<stop offset="1" stop-color="#FF3D54"/>
</linearGradient>
<linearGradient id="paint2_linear_5_91" x1="308" y1="131" x2="497" y2="131" gradientUnits="userSpaceOnUse">
<stop stop-color="#FF8F70"/>
<stop offset="1" stop-color="#FF3D54"/>
</linearGradient>
</defs>
</svg>
