<svg width="375" height="359" viewBox="0 0 375 359" fill="none" xmlns="http://www.w3.org/2000/svg">
<path opacity="0.08" d="M299.5 181.5C299.5 243.08 249.58 293 188 293C126.42 293 76.5 243.08 76.5 181.5C76.5 119.92 126.42 70 188 70C249.58 70 299.5 119.92 299.5 181.5Z" fill="#2D2E40"/>
<path opacity="0.5" d="M313 180C313 249.312 256.812 305.5 187.5 305.5C118.188 305.5 62 249.312 62 180C62 110.688 118.188 54.5 187.5 54.5C256.812 54.5 313 110.688 313 180Z" stroke="#2D2E40"/>
<path opacity="0.25" d="M350 180C350 269.746 277.246 342.5 187.5 342.5C97.7537 342.5 25 269.746 25 180C25 90.2537 97.7537 17.5 187.5 17.5C277.246 17.5 350 90.2537 350 180Z" stroke="#2D2E40"/>
<g filter="url(#filter0_d_1_282)">
<path d="M302.5 92H74.5C67.8726 92 62.5 97.3726 62.5 104V253C62.5 259.627 67.8726 265 74.5 265H302.5C309.127 265 314.5 259.627 314.5 253V104C314.5 97.3726 309.127 92 302.5 92Z" fill="#535353"/>
<path d="M303.5 94H73.5C67.9772 94 63.5 98.4772 63.5 104V254C63.5 259.523 67.9772 264 73.5 264H303.5C309.023 264 313.5 259.523 313.5 254V104C313.5 98.4772 309.023 94 303.5 94Z" fill="#1D1D25"/>
<path d="M304.5 100H73.5C71.8431 100 70.5 101.343 70.5 103V254.94C70.5 256.597 71.8431 257.94 73.5 257.94H304.5C306.157 257.94 307.5 256.597 307.5 254.94V103C307.5 101.343 306.157 100 304.5 100Z" fill="url(#paint0_linear_1_282)"/>
<mask id="mask0_1_282" style="mask-type:luminance" maskUnits="userSpaceOnUse" x="70" y="100" width="238" height="158">
<path d="M304.5 100H73.5C71.8431 100 70.5 101.343 70.5 103V254.94C70.5 256.597 71.8431 257.94 73.5 257.94H304.5C306.157 257.94 307.5 256.597 307.5 254.94V103C307.5 101.343 306.157 100 304.5 100Z" fill="white"/>
</mask>
<g mask="url(#mask0_1_282)">
<path d="M304.348 128.352H73.348C71.6911 128.352 70.348 129.695 70.348 131.352V255.061C70.348 256.718 71.6911 258.061 73.348 258.061H304.348C306.005 258.061 307.348 256.718 307.348 255.061V131.352C307.348 129.695 306.005 128.352 304.348 128.352Z" fill="#F9F6F6"/>
</g>
<mask id="mask1_1_282" style="mask-type:luminance" maskUnits="userSpaceOnUse" x="70" y="100" width="238" height="158">
<path d="M304.5 100H73.5C71.8431 100 70.5 101.343 70.5 103V254.94C70.5 256.597 71.8431 257.94 73.5 257.94H304.5C306.157 257.94 307.5 256.597 307.5 254.94V103C307.5 101.343 306.157 100 304.5 100Z" fill="white"/>
</mask>
<g mask="url(#mask1_1_282)">
<path d="M150.929 117.615H106.978C105.321 117.615 103.978 118.958 103.978 120.615V235.25C103.978 236.907 105.321 238.25 106.978 238.25H150.929C152.586 238.25 153.929 236.907 153.929 235.25V120.615C153.929 118.958 152.586 117.615 150.929 117.615Z" fill="white"/>
<path d="M271.023 117.615H165.431C163.774 117.615 162.431 118.958 162.431 120.615V235.25C162.431 236.907 163.774 238.25 165.431 238.25H271.023C272.68 238.25 274.023 236.907 274.023 235.25V120.615C274.023 118.958 272.68 117.615 271.023 117.615Z" fill="white"/>
<path d="M266.24 124.02H170.213C168.556 124.02 167.213 125.363 167.213 127.02V149.311C167.213 150.968 168.556 152.311 170.213 152.311H266.24C267.897 152.311 269.24 150.968 269.24 149.311V127.02C269.24 125.363 267.897 124.02 266.24 124.02Z" fill="#E7E7E7"/>
<path d="M194.502 158.183H170.213C168.556 158.183 167.213 159.526 167.213 161.183V183.474C167.213 185.131 168.556 186.474 170.213 186.474H194.502C196.159 186.474 197.502 185.131 197.502 183.474V161.183C197.502 159.526 196.159 158.183 194.502 158.183Z" fill="#E7E7E7"/>
<path d="M266.24 158.183H207.942C206.285 158.183 204.942 159.526 204.942 161.183V183.474C204.942 185.131 206.285 186.474 207.942 186.474H266.24C267.897 186.474 269.24 185.131 269.24 183.474V161.183C269.24 159.526 267.897 158.183 266.24 158.183Z" fill="#E7E7E7"/>
</g>
<g opacity="0.098">
<path d="M193.12 85H188C187.724 85 187.5 85.2239 187.5 85.5C187.5 85.7761 187.724 86 188 86H193.12C193.396 86 193.62 85.7761 193.62 85.5C193.62 85.2239 193.396 85 193.12 85Z" fill="#4A5166"/>
<path d="M196 85H195.56C195.284 85 195.06 85.2239 195.06 85.5C195.06 85.7761 195.284 86 195.56 86H196C196.276 86 196.5 85.7761 196.5 85.5C196.5 85.2239 196.276 85 196 85Z" fill="#4A5166"/>
</g>
<path d="M26.5 263H348.453C349.249 263 350.012 263.316 350.574 263.879C351.137 264.441 351.453 265.204 351.453 266V270.602H23.5V266C23.5 265.204 23.8161 264.441 24.3787 263.879C24.9413 263.316 25.7044 263 26.5 263V263Z" fill="#52526F"/>
<mask id="mask2_1_282" style="mask-type:luminance" maskUnits="userSpaceOnUse" x="23" y="263" width="329" height="8">
<path d="M26.5 263H348.453C349.249 263 350.012 263.316 350.574 263.879C351.137 264.441 351.453 265.204 351.453 266V270.602H23.5V266C23.5 265.204 23.8161 264.441 24.3787 263.879C24.9413 263.316 25.7044 263 26.5 263V263Z" fill="white"/>
</mask>
<g mask="url(#mask2_1_282)">
<path d="M204.26 244.374H170.693C165.17 244.374 160.693 248.851 160.693 254.374V257.561C160.693 263.084 165.17 267.561 170.693 267.561H204.26C209.783 267.561 214.26 263.084 214.26 257.561V254.374C214.26 248.851 209.783 244.374 204.26 244.374Z" fill="#2F2F47"/>
</g>
<path d="M23.5 271H351.5C351.5 271.796 351.184 272.559 350.621 273.121C350.059 273.684 349.296 274 348.5 274H26.5C25.7044 274 24.9413 273.684 24.3787 273.121C23.8161 272.559 23.5 271.796 23.5 271Z" fill="#393A56"/>
</g>
<defs>
<filter id="filter0_d_1_282" x="-16.5" y="65" width="408" height="269" filterUnits="userSpaceOnUse" color-interpolation-filters="sRGB">
<feFlood flood-opacity="0" result="BackgroundImageFix"/>
<feColorMatrix in="SourceAlpha" type="matrix" values="0 0 0 0 0 0 0 0 0 0 0 0 0 0 0 0 0 0 127 0" result="hardAlpha"/>
<feOffset dy="20"/>
<feGaussianBlur stdDeviation="20"/>
<feColorMatrix type="matrix" values="0 0 0 0 0.421822 0 0 0 0 0.554338 0 0 0 0 0.89371 0 0 0 0.243444 0"/>
<feBlend mode="normal" in2="BackgroundImageFix" result="effect1_dropShadow_1_282"/>
<feBlend mode="normal" in="SourceGraphic" in2="effect1_dropShadow_1_282" result="shape"/>
</filter>
<linearGradient id="paint0_linear_1_282" x1="71" y1="179" x2="308" y2="179" gradientUnits="userSpaceOnUse">
<stop stop-color="#FF8F70"/>
<stop offset="1" stop-color="#FF3D54"/>
</linearGradient>
</defs>
</svg>
